<svg width="56" height="56" viewBox="0 0 56 56" fill="none" xmlns="http://www.w3.org/2000/svg">
<path d="M28 56.002C43.464 56.002 56 43.4659 56 28.002C56 12.538 43.464 0.00195312 28 0.00195312C12.536 0.00195312 0 12.538 0 28.002C0 43.4659 12.536 56.002 28 56.002Z" fill="#5556FF"/>
<path fill-rule="evenodd" clip-rule="evenodd" d="M32.4707 26.1572L32.4844 26.1595C32.4798 26.1589 32.4753 26.1579 32.4707 26.1572Z" fill="white"/>
<path fill-rule="evenodd" clip-rule="evenodd" d="M13.2593 11.9808C13.2508 12.0341 13.2469 12.0885 13.2475 12.1435C13.2475 12.0573 13.2573 11.972 13.2788 11.8899C13.271 11.9199 13.2645 11.9502 13.2593 11.9808Z" fill="white"/>
<path fill-rule="evenodd" clip-rule="evenodd" d="M15.2533 36.2677C15.2533 36.272 15.254 36.2733 15.254 36.2775L15.2533 36.2677ZM13.2501 12.146C13.2501 12.0636 13.2585 11.9822 13.2781 11.9035C13.2716 11.9295 13.2664 11.9562 13.2618 11.9829C13.2533 12.0363 13.2494 12.0906 13.2501 12.146Z" fill="white"/>
<path fill-rule="evenodd" clip-rule="evenodd" d="M28.8574 24.5917C28.9676 24.5692 29.065 24.5176 29.1436 24.4465C29.2294 24.3691 29.2923 24.2684 29.3247 24.1563C29.3516 24.0625 29.3571 23.9607 29.3365 23.8578L27.4054 14.3038C27.337 13.9633 27.0093 13.7486 26.6794 13.8164L17.2053 15.7637C16.8753 15.8315 16.6566 16.1585 16.7251 16.4989L18.6561 26.053C18.7001 26.2681 18.8473 26.4328 19.0327 26.5075C19.1407 26.5509 19.2616 26.5639 19.3827 26.5392L28.8574 24.5917Z" fill="white"/>
<path fill-rule="evenodd" clip-rule="evenodd" d="M31.5644 37.6767C31.8937 37.6091 32.1119 37.2828 32.0435 36.9428L30.1125 27.3887C30.044 27.0483 29.7164 26.8336 29.3864 26.9014L19.9124 28.8487C19.5824 28.9164 19.3637 29.2435 19.4321 29.5839L21.3631 39.1379C21.4089 39.3618 21.5661 39.5309 21.7625 39.6009C21.8187 39.6209 21.8774 39.633 21.9386 39.6359C21.9883 39.6382 22.0389 39.6344 22.0897 39.6242L31.5644 37.6767Z" fill="white"/>
<path fill-rule="evenodd" clip-rule="evenodd" d="M41.8456 21.8642C41.966 21.8396 42.0716 21.78 42.1537 21.6977C42.2962 21.5557 42.3681 21.3458 42.3247 21.1303L40.3937 11.5762C40.3436 11.3268 40.1542 11.1449 39.9267 11.092C39.844 11.0728 39.7555 11.0708 39.6676 11.0889L30.1936 13.0362C29.8636 13.1039 29.6449 13.431 29.7134 13.7714L31.6444 23.3254C31.6905 23.5513 31.8509 23.7219 32.0499 23.7907C32.1498 23.8255 32.26 23.8343 32.3709 23.8117L41.8456 21.8642Z" fill="white"/>
<path fill-rule="evenodd" clip-rule="evenodd" d="M44.5371 34.9482C44.769 34.9005 44.9462 34.7244 45.0064 34.5056C45.0317 34.4139 45.0364 34.3148 45.0161 34.2143L43.0851 24.6602C43.057 24.5201 42.9851 24.4011 42.8868 24.3146C42.7465 24.1911 42.5531 24.1331 42.359 24.1728L32.885 26.1202C32.555 26.1879 32.3363 26.515 32.4048 26.8554L34.3358 36.4094C34.384 36.6458 34.5566 36.8213 34.7684 36.8836C34.8612 36.9107 34.9616 36.9163 35.0624 36.8956L44.5371 34.9482Z" fill="white"/>
<path d="M10.5002 14.045C12.1536 13.7016 13.7656 14.7705 14.1105 16.4291L18.3613 37.1011C18.4926 37.7398 18.0864 38.3668 17.4475 38.5021L17.4285 38.5056L17.3457 38.5185L17.3354 38.5202L17.325 38.5211C17.3031 38.5232 17.2552 38.5276 17.2103 38.528C16.7206 38.5278 16.2889 38.2239 16.1138 37.7825C16.0993 37.7463 16.0868 37.7094 16.0758 37.6712L16.0715 37.6565L16.0569 37.5952L16.0543 37.584L11.8035 16.9111C11.753 16.6684 11.5859 16.4814 11.3739 16.3978C11.2547 16.3505 11.1199 16.336 10.9839 16.3641L10.9598 16.3692L10.908 16.3839L10.8442 16.4081C10.8057 16.425 10.7678 16.4462 10.7303 16.4719C10.6551 16.5241 10.5902 16.5902 10.5413 16.666L10.5363 16.6736C10.5267 16.6884 10.5165 16.7041 10.5077 16.7203L10.5016 16.7324C10.446 16.8403 10.4202 16.9617 10.4248 17.0835L10.4395 17.1957L10.8465 19.1645C10.9774 19.8025 10.5721 20.4308 9.93525 20.5663C9.33445 20.6917 8.74978 20.3342 8.57136 19.7638L8.56704 19.7492L8.54548 19.6672L8.5429 19.6577L8.54117 19.6482L8.1359 17.6846L8.10831 17.5345C7.9881 16.7823 8.153 16.0114 8.5701 15.3717L8.65639 15.2457C9.09895 14.6288 9.75635 14.2009 10.5002 14.045Z" fill="white"/>
<path d="M18.8082 40.1123C20.6638 40.198 22.2346 41.5397 22.6178 43.3815C23.0766 45.6013 21.6641 47.7832 19.4543 48.2459C19.1764 48.3056 18.8951 48.3338 18.6139 48.334L18.4146 48.3313L18.4008 48.3304C16.3105 48.2195 14.6434 46.5258 14.5417 44.4245L14.5367 44.2235L14.5367 44.214C14.5404 41.945 16.3709 40.1038 18.6278 40.1079L18.8082 40.1123ZM18.6224 42.4787C18.4998 42.4786 18.3816 42.4901 18.2686 42.5142L18.1806 42.5339C17.2995 42.767 16.7389 43.662 16.9279 44.5767C17.1049 45.4344 17.8774 46.0109 18.7134 45.9633L18.8816 45.9449L18.9705 45.9277C19.8688 45.7383 20.4622 44.8726 20.3258 43.9636L20.3087 43.8661L20.2708 43.7177C20.0523 42.9872 19.3859 42.4802 18.6224 42.4787Z" fill="white"/>
<path d="M48.2476 37.2468C48.4493 37.4131 48.5983 37.647 48.6568 37.9223C48.7393 38.3192 48.6121 38.7121 48.3522 38.9849C48.1942 39.1508 47.9861 39.2727 47.7454 39.3239L25.6743 43.959C25.5949 43.9753 25.5112 43.9834 25.4319 43.9834C24.7788 43.9832 24.253 43.4501 24.2552 42.797C24.2566 42.2383 24.6478 41.7568 25.1897 41.64L47.2625 37.004C47.6258 36.9284 47.9829 37.0292 48.2476 37.2468Z" fill="white"/>
</svg>
