<svg width="100" height="100" viewBox="0 0 100 100" fill="none" xmlns="http://www.w3.org/2000/svg">
<rect width="100" height="100" fill="#5556FF"/>
<path fill-rule="evenodd" clip-rule="evenodd" d="M54.2773 48.4141L54.2951 48.417C54.2892 48.4162 54.2833 48.4149 54.2773 48.4141Z" fill="white"/>
<path fill-rule="evenodd" clip-rule="evenodd" d="M31.76 31.7924C31.7501 31.855 31.7455 31.9187 31.7463 31.9832C31.7463 31.8821 31.7577 31.7821 31.7829 31.6859C31.7738 31.721 31.7661 31.7565 31.76 31.7924Z" fill="white"/>
<path fill-rule="evenodd" clip-rule="evenodd" d="M34.0943 60.2677C34.0943 60.2727 34.0951 60.2742 34.0951 60.2792L34.0943 60.2677ZM31.7454 31.9838C31.7454 31.8872 31.7553 31.7918 31.7782 31.6994C31.7706 31.7299 31.7645 31.7612 31.7591 31.7925C31.7492 31.8551 31.7446 31.9189 31.7454 31.9838Z" fill="white"/>
<path fill-rule="evenodd" clip-rule="evenodd" d="M50.0463 46.578C50.1756 46.5516 50.2898 46.4911 50.382 46.4077C50.4826 46.3169 50.5563 46.1989 50.5943 46.0674C50.6258 45.9574 50.6324 45.8381 50.6081 45.7174L48.3439 34.5148C48.2636 34.1157 47.8794 33.8639 47.4925 33.9434L36.3837 36.2267C35.9968 36.3062 35.7404 36.6896 35.8206 37.0888L38.0848 48.2914C38.1364 48.5436 38.309 48.7367 38.5264 48.8243C38.653 48.8752 38.7948 48.8905 38.9368 48.8615L50.0463 46.578Z" fill="white"/>
<path fill-rule="evenodd" clip-rule="evenodd" d="M53.2182 61.9218C53.6043 61.8425 53.8602 61.4599 53.78 61.0612L51.5158 49.8586C51.4355 49.4594 51.0513 49.2077 50.6644 49.2871L39.5556 51.5704C39.1687 51.6499 38.9122 52.0334 38.9925 52.4325L41.2567 63.6351C41.3103 63.8976 41.4947 64.0959 41.725 64.1779C41.7908 64.2015 41.8597 64.2157 41.9314 64.219C41.9898 64.2217 42.0491 64.2172 42.1086 64.2052L53.2182 61.9218Z" fill="white"/>
<path fill-rule="evenodd" clip-rule="evenodd" d="M65.2651 43.3807C65.4063 43.3519 65.5301 43.282 65.6263 43.1855C65.7934 43.019 65.8777 42.7729 65.8269 42.5202L63.5626 31.3176C63.5038 31.0251 63.2818 30.8118 63.015 30.7498C62.918 30.7272 62.8143 30.725 62.7113 30.7461L51.6025 33.0294C51.2155 33.1089 50.9591 33.4924 51.0394 33.8915L53.3036 45.0941C53.3577 45.359 53.5457 45.559 53.779 45.6396C53.8962 45.6805 54.0255 45.6908 54.1555 45.6642L65.2651 43.3807Z" fill="white"/>
<path fill-rule="evenodd" clip-rule="evenodd" d="M68.4291 58.7284C68.7011 58.6725 68.9089 58.466 68.9795 58.2095C69.0091 58.102 69.0146 57.9857 68.9909 57.8678L66.7267 46.6652C66.6937 46.501 66.6095 46.3614 66.4941 46.2599C66.3296 46.1151 66.1029 46.0472 65.8753 46.0938L54.7665 48.3771C54.3796 48.4565 54.1232 48.84 54.2034 49.2392L56.4676 60.4418C56.5242 60.719 56.7266 60.9247 56.9749 60.9978C57.0837 61.0296 57.2014 61.0361 57.3196 61.0119L68.4291 58.7284Z" fill="white"/>
<path d="M28.521 34.2114C30.4597 33.8087 32.3498 35.0621 32.7543 37.0069L37.7386 61.2459C37.8925 61.9948 37.4162 62.73 36.6671 62.8886L36.6449 62.8927L36.5477 62.9078L36.5356 62.9099L36.5235 62.9109C36.4977 62.9133 36.4416 62.9185 36.3889 62.919C35.8148 62.9187 35.3086 62.5624 35.1033 62.0448C35.0863 62.0024 35.0716 61.9591 35.0588 61.9143L35.0537 61.8971L35.0365 61.8253L35.0335 61.8121L30.0492 37.5721C29.99 37.2875 29.7941 37.0682 29.5455 36.9701C29.4057 36.9147 29.2476 36.8977 29.0882 36.9306L29.0599 36.9367L28.9992 36.9539L28.9244 36.9822C28.8793 37.0021 28.8348 37.0269 28.7908 37.0571C28.7027 37.1183 28.6265 37.1958 28.5692 37.2846L28.5634 37.2936C28.5521 37.3109 28.5401 37.3293 28.5298 37.3484L28.5227 37.3625C28.4574 37.4891 28.4273 37.6314 28.4326 37.7742L28.4498 37.9058L28.927 40.2143C29.0806 40.9624 28.6054 41.6991 27.8586 41.858C27.1541 42.005 26.4686 41.5858 26.2594 40.9171L26.2543 40.8999L26.229 40.8037L26.226 40.7926L26.224 40.7815L25.7488 38.479L25.7164 38.303C25.5755 37.421 25.7688 36.5171 26.2579 35.767L26.3591 35.6193C26.878 34.896 27.6488 34.3942 28.521 34.2114Z" fill="white"/>
<path d="M38.258 64.7763C40.4339 64.8768 42.2757 66.4499 42.725 68.6095C43.2629 71.2123 41.6068 73.7708 39.0156 74.3133C38.6898 74.3833 38.36 74.4164 38.0302 74.4166L37.7965 74.4134L37.7804 74.4124C35.3294 74.2823 33.3746 72.2964 33.2553 69.8325L33.2495 69.5968L33.2495 69.5857C33.2538 66.9252 35.4003 64.7662 38.0466 64.771L38.258 64.7763ZM38.0402 67.5509C37.8965 67.5508 37.7579 67.5643 37.6254 67.5925L37.5222 67.6157C36.4891 67.889 35.8317 68.9384 36.0533 70.0109C36.2608 71.0166 37.1666 71.6927 38.1469 71.6369L38.3442 71.6153L38.4484 71.5951C39.5017 71.373 40.1975 70.3579 40.0376 69.2921L40.0175 69.1777L39.9731 69.0037C39.7169 68.1472 38.9354 67.5527 38.0402 67.5509Z" fill="white"/>
<path d="M72.7877 61.4214C73.0243 61.6163 73.1991 61.8906 73.2676 62.2134C73.3643 62.6788 73.2152 63.1395 72.9104 63.4594C72.7251 63.6539 72.4812 63.7969 72.1989 63.8568L46.3194 69.2918C46.2264 69.3109 46.1282 69.3204 46.0352 69.3203C45.2694 69.3202 44.6528 68.695 44.6555 67.9292C44.6571 67.2742 45.1158 66.7096 45.7512 66.5726L71.6327 61.1366C72.0587 61.048 72.4774 61.1662 72.7877 61.4214Z" fill="white"/>
</svg>
