<svg width="98" height="98" viewBox="0 0 98 98" fill="none" xmlns="http://www.w3.org/2000/svg">
<rect width="98" height="98" fill="none"/>
<path d="M62.2031 79.4856V56.8594H77.6482V61.3007H67.6719V65.9408H76.6649V70.3932H67.6719V79.4856H62.2031Z" fill="#00A464"/>
<path d="M45.25 79.4856V56.8594H60.6951V61.3007H50.7188V65.9408H59.7118V70.3932H50.7188V79.4856H45.25Z" fill="#00A464"/>
<path d="M43.3019 68.1733C43.3019 70.6627 42.8232 72.7729 41.8657 74.5037C40.9082 76.2346 39.6119 77.5493 37.9768 78.4479C36.3491 79.3464 34.5225 79.7957 32.497 79.7957C30.4642 79.7957 28.6339 79.3428 27.0062 78.4368C25.3784 77.5309 24.0858 76.2162 23.1283 74.4927C22.1782 72.7618 21.7031 70.6554 21.7031 68.1733C21.7031 65.6838 22.1782 63.5736 23.1283 61.8428C24.0858 60.1119 25.3784 58.7972 27.0062 57.8986C28.6339 57.0001 30.4642 56.5508 32.497 56.5508C34.5225 56.5508 36.3491 57.0001 37.9768 57.8986C39.6119 58.7972 40.9082 60.1119 41.8657 61.8428C42.8232 63.5736 43.3019 65.6838 43.3019 68.1733ZM37.7116 68.1733C37.7116 66.7002 37.5017 65.4555 37.0819 64.439C36.6695 63.4226 36.0729 62.6529 35.2921 62.13C34.5188 61.6071 33.5871 61.3456 32.497 61.3456C31.4143 61.3456 30.4826 61.6071 29.7019 62.13C28.9211 62.6529 28.3209 63.4226 27.901 64.439C27.4886 65.4555 27.2824 66.7002 27.2824 68.1733C27.2824 69.6463 27.4886 70.8911 27.901 71.9075C28.3209 72.9239 28.9211 73.6936 29.7019 74.2165C30.4826 74.7394 31.4143 75.0009 32.497 75.0009C33.5871 75.0009 34.5188 74.7394 35.2921 74.2165C36.0729 73.6936 36.6695 72.9239 37.0819 71.9075C37.5017 70.8911 37.7116 69.6463 37.7116 68.1733Z" fill="#00A464"/>
<path d="M72.5259 40.5772V39.1966C72.5259 38.1227 72.756 37.1298 73.2163 36.2179C73.685 35.3059 74.3626 34.573 75.2489 34.019C76.1353 33.465 77.2177 33.188 78.4961 33.188C79.8001 33.188 80.8952 33.465 81.7816 34.019C82.6765 34.5645 83.3498 35.2931 83.8015 36.2051C84.2617 37.1085 84.4918 38.1056 84.4918 39.1966V40.5772C84.4918 41.6511 84.2617 42.644 83.8015 43.5559C83.3413 44.4679 82.6637 45.2008 81.7688 45.7548C80.8739 46.3088 79.783 46.5858 78.4961 46.5858C77.2006 46.5858 76.1097 46.3088 75.2234 45.7548C74.337 45.2008 73.6637 44.4679 73.2035 43.5559C72.7518 42.644 72.5259 41.6511 72.5259 40.5772ZM76.604 39.1966V40.5772C76.604 41.1227 76.7362 41.6468 77.0004 42.1497C77.2731 42.6525 77.7717 42.9039 78.4961 42.9039C79.2376 42.9039 79.7362 42.661 79.9918 42.1752C80.2475 41.6809 80.3754 41.1483 80.3754 40.5772V39.1966C80.3754 38.6255 80.2518 38.0886 80.0046 37.5858C79.766 37.0744 79.2631 36.8187 78.4961 36.8187C77.7802 36.8187 77.2859 37.0744 77.0131 37.5858C76.7404 38.0886 76.604 38.6255 76.604 39.1966ZM58.9492 25.5943V24.2136C58.9492 23.1227 59.1836 22.1255 59.6523 21.2221C60.1296 20.3102 60.8114 19.5815 61.6978 19.036C62.5842 18.4821 63.658 18.2051 64.9194 18.2051C66.2234 18.2051 67.3185 18.4821 68.2049 19.036C69.0998 19.5815 69.7773 20.3102 70.2376 21.2221C70.6978 22.1255 70.9279 23.1227 70.9279 24.2136V25.5943C70.9279 26.6852 70.6935 27.6823 70.2248 28.5858C69.7646 29.4892 69.087 30.2093 68.1921 30.7463C67.2972 31.2832 66.2063 31.5517 64.9194 31.5517C63.6325 31.5517 62.5416 31.2789 61.6467 30.7335C60.7603 30.188 60.087 29.4636 59.6268 28.5602C59.1751 27.6568 58.9492 26.6681 58.9492 25.5943ZM63.0657 24.2136V25.5943C63.0657 26.1653 63.1978 26.698 63.462 27.1923C63.7347 27.6781 64.2205 27.921 64.9194 27.921C65.6694 27.921 66.168 27.6781 66.4151 27.1923C66.6708 26.698 66.7987 26.1653 66.7987 25.5943V24.2136C66.7987 23.6426 66.6793 23.1056 66.4407 22.6028C66.2021 22.0914 65.695 21.8358 64.9194 21.8358C64.2035 21.8358 63.7134 22.0957 63.4492 22.6156C63.1935 23.1355 63.0657 23.6681 63.0657 24.2136ZM60.8796 45.4863L78.8796 19.3045H82.3697L64.3697 45.4863H60.8796Z" fill="#00A464"/>
<path d="M45.6637 45.8445C43.7546 45.8445 42.0586 45.4993 40.5756 44.8089C39.0927 44.1186 37.9208 43.1683 37.06 41.9581C36.2077 40.7479 35.7646 39.3587 35.7305 37.7905H41.8668C41.918 38.7535 42.31 39.5291 43.043 40.1172C43.7759 40.6967 44.6495 40.9865 45.6637 40.9865C46.4563 40.9865 47.1594 40.8118 47.7731 40.4624C48.3867 40.1129 48.8683 39.6229 49.2177 38.9922C49.5671 38.353 49.7376 37.62 49.729 36.7933C49.7376 35.9496 49.5629 35.2124 49.2049 34.5817C48.8555 33.951 48.3697 33.4609 47.7475 33.1115C47.1339 32.7536 46.4265 32.5746 45.6254 32.5746C44.8668 32.5661 44.1467 32.7322 43.4648 33.0732C42.7916 33.4141 42.2802 33.8786 41.9308 34.4666L36.3441 33.4183L37.4819 19.3047H54.2802V24.4055H42.685L42.0842 30.5803H42.2376C42.6722 29.8558 43.3711 29.2592 44.3342 28.7905C45.3058 28.3132 46.4094 28.0746 47.6452 28.0746C49.2134 28.0746 50.6112 28.4411 51.8384 29.174C53.0742 29.8984 54.0458 30.9041 54.7532 32.1911C55.4691 33.478 55.8271 34.9524 55.8271 36.6143C55.8271 38.4126 55.4009 40.0064 54.5487 41.3956C53.7049 42.7848 52.5202 43.8757 50.9947 44.6683C49.4776 45.4524 47.7006 45.8445 45.6637 45.8445Z" fill="#00A464"/>
<path d="M23.445 45.8445C21.5359 45.8445 19.8398 45.4993 18.3569 44.8089C16.8739 44.1186 15.7021 43.1683 14.8413 41.9581C13.989 40.7479 13.5458 39.3587 13.5117 37.7905H19.6481C19.6992 38.7535 20.0913 39.5291 20.8242 40.1172C21.5572 40.6967 22.4308 40.9865 23.445 40.9865C24.2376 40.9865 24.9407 40.8118 25.5543 40.4624C26.168 40.1129 26.6495 39.6229 26.9989 38.9922C27.3484 38.353 27.5188 37.62 27.5103 36.7933C27.5188 35.9496 27.3441 35.2124 26.9862 34.5817C26.6367 33.951 26.1509 33.4609 25.5288 33.1115C24.9151 32.7536 24.2077 32.5746 23.4066 32.5746C22.6481 32.5661 21.9279 32.7322 21.2461 33.0732C20.5728 33.4141 20.0614 33.8786 19.712 34.4666L14.1254 33.4183L15.2631 19.3047H32.0614V24.4055H20.4663L19.8654 30.5803H20.0188C20.4535 29.8558 21.1523 29.2592 22.1154 28.7905C23.087 28.3132 24.1907 28.0746 25.4265 28.0746C26.9947 28.0746 28.3924 28.4411 29.6197 29.174C30.8555 29.8984 31.8271 30.9041 32.5344 32.1911C33.2504 33.478 33.6083 34.9524 33.6083 36.6143C33.6083 38.4126 33.1822 40.0064 32.3299 41.3956C31.4862 42.7848 30.3015 43.8757 28.7759 44.6683C27.2589 45.4524 25.4819 45.8445 23.445 45.8445Z" fill="#00A464"/>
</svg>
