<svg xmlns="http://www.w3.org/2000/svg" width="40" height="40" fill="none"><circle cx="20" cy="20" r="20" fill="#94C752"/><path fill="#fff" d="M17.75 22a.75.75 0 0 0-1.5 0h1.5Zm4.5-4a.75.75 0 0 0 1.5 0h-1.5Zm-3 8a.75.75 0 0 0 1.5 0h-1.5Zm1.5-12a.75.75 0 0 0-1.5 0h1.5Zm.25 1.25h-2v1.5h2v-1.5Zm-2 5.5h2v-1.5h-2v1.5Zm2 2.5h-2v1.5h2v-1.5Zm-2 0c-.69 0-1.25-.56-1.25-1.25h-1.5A2.75 2.75 0 0 0 19 24.75v-1.5ZM22.25 22c0 .69-.56 1.25-1.25 1.25v1.5A2.75 2.75 0 0 0 23.75 22h-1.5ZM21 20.75c.69 0 1.25.56 1.25 1.25h1.5A2.75 2.75 0 0 0 21 19.25v1.5ZM16.25 18A2.75 2.75 0 0 0 19 20.75v-1.5c-.69 0-1.25-.56-1.25-1.25h-1.5ZM19 15.25A2.75 2.75 0 0 0 16.25 18h1.5c0-.69.56-1.25 1.25-1.25v-1.5ZM23.75 18A2.75 2.75 0 0 0 21 15.25v1.5c.69 0 1.25.56 1.25 1.25h1.5Zm-3 8v-2h-1.5v2h1.5Zm-1.5-12v2h1.5v-2h-1.5Z"/><circle cx="20" cy="20" r="9" stroke="#fff" stroke-width="1.5"/></svg>