<svg xmlns="http://www.w3.org/2000/svg" width="20" height="20" viewBox="0 0 27 26" fill="none"><path fill="#FEAD01" d="m12.276 2.814-6.157 1.28a.674.674 0 0 0-.524.797l1.283 6.141a.676.676 0 0 0 .8.523l6.157-1.28a.674.674 0 0 0 .524-.798l-1.284-6.14a.676.676 0 0 0-.8-.523Zm1.759 8.419-6.157 1.28a.674.674 0 0 0-.523.797l1.283 6.141a.676.676 0 0 0 .8.523l6.157-1.28a.674.674 0 0 0 .523-.798l-1.283-6.14a.676.676 0 0 0-.8-.523Zm6.682-10.174-6.157 1.28a.674.674 0 0 0-.524.797l1.284 6.141a.676.676 0 0 0 .8.523l6.156-1.28a.674.674 0 0 0 .524-.798l-1.283-6.14a.676.676 0 0 0-.8-.523Zm1.76 8.42-6.157 1.28a.674.674 0 0 0-.524.797l1.284 6.141a.676.676 0 0 0 .8.523l6.156-1.28a.674.674 0 0 0 .524-.798l-1.284-6.14a.676.676 0 0 0-.8-.523Z"/><path fill="#6C6CFF" d="M6.307 19.322a.537.537 0 0 1-.524-.426L2.425 2.815a.681.681 0 0 0-1.24-.235.674.674 0 0 0-.097.512l.264 1.264a.534.534 0 0 1-.625.635.537.537 0 0 1-.425-.416L.038 3.31a1.732 1.732 0 0 1 .25-1.318 1.741 1.741 0 0 1 1.11-.754 1.761 1.761 0 0 1 2.077 1.357l3.358 16.082a.534.534 0 0 1-.526.644Zm4.676 3.072a.537.537 0 0 1-.533-.48.533.533 0 0 1 .424-.579l14.917-3.101a.538.538 0 0 1 .635.414.534.534 0 0 1-.416.633l-14.917 3.102a.54.54 0 0 1-.11.01Z"/><path fill="#070C1A" d="M7.101 25.075a2.43 2.43 0 0 1-2.187-1.383 2.414 2.414 0 0 1 1.419-3.33 2.432 2.432 0 0 1 2.516.611 2.417 2.417 0 0 1-1.748 4.102Zm.008-3.77a1.367 1.367 0 0 0-.969.404 1.348 1.348 0 0 0 .978 2.296 1.355 1.355 0 0 0 1.242-.845 1.346 1.346 0 0 0-.4-1.55 1.356 1.356 0 0 0-.851-.305Z"/></svg>