<svg xmlns="http://www.w3.org/2000/svg" width="257.926" height="236.257" viewBox="0 0 257.926 236.257"><g data-name="Group 3272"><g data-name="Group 3265" transform="translate(.002 .001)"><rect width="74.546" height="74.546" fill="#fead01" data-name="Rectangle 2623" rx="6.594" transform="rotate(-11.76 183.63 -242.068)"/></g><g data-name="Group 3266" transform="translate(.002 .001)"><rect width="74.546" height="74.546" fill="#fead01" data-name="Rectangle 2624" rx="6.594" transform="rotate(-11.76 591.64 -284.209)"/></g><g data-name="Group 3267" transform="translate(.002 .001)"><rect width="74.546" height="74.546" fill="#fead01" data-name="Rectangle 2625" rx="6.594" transform="rotate(-11.76 141.485 -650.136)"/></g><g data-name="Group 3268" transform="translate(.002 .001)"><rect width="74.546" height="74.546" fill="#fead01" data-name="Rectangle 2626" rx="6.594" transform="rotate(-11.76 549.548 -692.277)"/></g><g data-name="Group 3269"><path fill="#6c6cff" d="M61.531 179.985a5.236 5.236 0 0 1-5.117-4.166l-32.76-157.3a6.661 6.661 0 1 0-13.041 2.718l2.577 12.364a5.232 5.232 0 0 1-10.243 2.136L.369 23.372a17.127 17.127 0 1 1 33.533-6.988l32.76 157.3a5.235 5.235 0 0 1-5.127 6.3Z" data-name="Path 2149"/></g><g data-name="Group 3270"><path fill="#6c6cff" d="M107.154 210.033a5.233 5.233 0 0 1-1.063-10.355l145.535-30.334a5.232 5.232 0 0 1 2.135 10.244l-145.535 30.334a5.358 5.358 0 0 1-1.072.111Z" data-name="Path 2150"/></g><g data-name="Group 3271"><path fill="#070c1a" d="M69.278 236.257a23.667 23.667 0 1 1 23.213-28.5 23.663 23.663 0 0 1-18.337 27.993 23.916 23.916 0 0 1-4.876.507Zm.075-36.873a13.2 13.2 0 1 0 12.894 10.517 13.209 13.209 0 0 0-12.894-10.509Z" data-name="Path 2151"/></g></g></svg>