<svg width="483" height="84" viewBox="0 0 483 84" fill="none" xmlns="http://www.w3.org/2000/svg">
<path d="M419.599 28.8213C421.952 28.8213 424.173 29.2026 426.261 29.9648C428.365 30.7105 430.222 31.8701 431.829 33.4443C433.453 35.0186 434.729 37.0241 435.657 39.46C436.585 41.8795 437.05 44.7638 437.05 48.1113V50.8701H410.454C410.481 52.9953 410.884 54.827 411.669 56.3643C412.481 57.9385 413.617 59.148 415.075 59.9932C416.533 60.8216 418.24 61.2363 420.195 61.2363C421.504 61.2363 422.69 61.0539 423.75 60.6895C424.811 60.3083 425.731 59.7526 426.51 59.0234C427.288 58.2944 427.877 57.3914 428.274 56.3145L436.677 57.2588C436.146 59.4794 435.135 61.418 433.644 63.0752C432.169 64.7157 430.28 65.9919 427.977 66.9033C425.673 67.7982 423.038 68.2461 420.071 68.2461C416.243 68.2461 412.937 67.4502 410.153 65.8594C407.386 64.252 405.256 61.9819 403.765 59.0488C402.273 56.099 401.527 52.6267 401.527 48.6328C401.527 44.7053 402.273 41.2583 403.765 38.292C405.273 35.3092 407.377 32.9892 410.078 31.332C412.779 29.6583 415.953 28.8214 419.599 28.8213ZM419.724 35.8311C417.884 35.8311 416.268 36.2789 414.876 37.1738C413.484 38.0521 412.399 39.2118 411.62 40.6533C410.94 41.9249 410.557 43.3089 410.471 44.8047H428.424C428.407 43.0813 428.034 41.5483 427.305 40.2061C426.576 38.8472 425.556 37.7779 424.247 36.999C422.955 36.2204 421.447 35.8311 419.724 35.8311Z" fill="#0A0A0A"/>
<path d="M395.915 16.5908V67.4999H386.916V16.5908H395.915Z" fill="#0A0A0A"/>
<path d="M360.709 68.2709C358.289 68.2709 356.11 67.84 354.171 66.9782C352.249 66.0999 350.724 64.8073 349.597 63.1004C348.487 61.3935 347.932 59.2889 347.932 56.7865C347.932 54.6321 348.329 52.8506 349.125 51.442C349.92 50.0334 351.006 48.9065 352.381 48.0613C353.757 47.2162 355.306 46.5782 357.03 46.1473C358.77 45.6998 360.568 45.3767 362.424 45.1778C364.661 44.9458 366.476 44.7387 367.868 44.5564C369.26 44.3575 370.271 44.0592 370.9 43.6615C371.547 43.2472 371.87 42.6092 371.87 41.7474V41.5983C371.87 39.7256 371.315 38.2756 370.204 37.2481C369.094 36.2207 367.495 35.7069 365.407 35.7069C363.203 35.7069 361.454 36.1875 360.162 37.1487C358.886 38.1099 358.024 39.2451 357.577 40.5542L349.175 39.3611C349.837 37.041 350.931 35.1021 352.456 33.5443C353.98 31.97 355.845 30.7934 358.049 30.0145C360.253 29.219 362.689 28.8213 365.357 28.8213C367.197 28.8213 369.028 29.0367 370.851 29.4676C372.674 29.8985 374.339 30.6111 375.847 31.6054C377.355 32.5831 378.565 33.9172 379.476 35.6075C380.404 37.2978 380.868 39.4108 380.868 41.9463V67.5003H372.218V62.2552H371.92C371.373 63.3158 370.602 64.3102 369.608 65.2382C368.63 66.1496 367.395 66.8871 365.904 67.4506C364.429 67.9974 362.697 68.2709 360.709 68.2709ZM363.045 61.6586C364.852 61.6586 366.418 61.3023 367.743 60.5898C369.069 59.8606 370.088 58.8994 370.801 57.7062C371.53 56.5131 371.895 55.2121 371.895 53.8035V49.3042C371.613 49.5363 371.132 49.7517 370.453 49.9505C369.79 50.1494 369.044 50.3234 368.216 50.4726C367.387 50.6217 366.567 50.7543 365.755 50.8703C364.943 50.9863 364.238 51.0857 363.642 51.1686C362.3 51.3509 361.098 51.6492 360.037 52.0635C358.977 52.4778 358.14 53.0578 357.527 53.8035C356.914 54.5327 356.607 55.4773 356.607 56.6373C356.607 58.2945 357.212 59.5457 358.422 60.3909C359.631 61.2361 361.173 61.6586 363.045 61.6586Z" fill="#0A0A0A"/>
<path d="M342.483 39.4108L334.28 40.3057C334.048 39.4771 333.642 38.6982 333.062 37.969C332.499 37.2398 331.736 36.6515 330.775 36.2041C329.814 35.7567 328.637 35.5329 327.245 35.5329C325.373 35.5329 323.798 35.9389 322.522 36.751C321.263 37.563 320.641 38.6153 320.658 39.9079C320.641 41.0183 321.047 41.9214 321.876 42.6175C322.721 43.3135 324.113 43.8852 326.052 44.3327L332.565 45.7247C336.177 46.5036 338.862 47.7382 340.619 49.4285C342.392 51.1189 343.287 53.3312 343.303 56.0656C343.287 58.4685 342.583 60.5898 341.191 62.4292C339.815 64.2522 337.901 65.6773 335.448 66.7048C332.996 67.7323 330.178 68.246 326.997 68.246C322.323 68.246 318.561 67.2683 315.711 65.3128C312.861 63.3407 311.162 60.598 310.615 57.0848L319.39 56.2396C319.788 57.9631 320.633 59.264 321.926 60.1423C323.218 61.0206 324.9 61.4598 326.972 61.4598C329.11 61.4598 330.825 61.0206 332.117 60.1423C333.427 59.264 334.081 58.1785 334.081 56.8859C334.081 55.7922 333.659 54.889 332.813 54.1764C331.985 53.4638 330.692 52.9169 328.936 52.5358L322.423 51.1686C318.76 50.4063 316.051 49.122 314.294 47.3156C312.538 45.4927 311.668 43.1892 311.684 40.4051C311.668 38.0519 312.306 36.0135 313.598 34.29C314.907 32.55 316.722 31.2077 319.042 30.263C321.379 29.3019 324.072 28.8213 327.121 28.8213C331.595 28.8213 335.117 29.7742 337.686 31.68C340.271 33.5857 341.87 36.1627 342.483 39.4108Z" fill="#0A0A0A"/>
<path d="M288.239 28.8213C290.592 28.8213 292.813 29.2026 294.901 29.9648C297.006 30.7106 298.862 31.871 300.47 33.4453C302.094 35.0196 303.37 37.025 304.298 39.4609C305.226 41.8804 305.689 44.764 305.689 48.1113V50.8701H279.094C279.12 52.9953 279.525 54.827 280.31 56.3643C281.122 57.9385 282.258 59.148 283.716 59.9932C285.174 60.8216 286.881 61.2363 288.836 61.2363C290.145 61.2363 291.33 61.054 292.391 60.6895C293.451 60.3083 294.372 59.7526 295.15 59.0234C295.929 58.2944 296.517 57.3914 296.915 56.3145L305.317 57.2588C304.787 59.4794 303.776 61.418 302.284 63.0752C300.809 64.7157 298.92 65.9919 296.617 66.9033C294.314 67.7982 291.678 68.2461 288.712 68.2461C284.884 68.2461 281.578 67.4502 278.794 65.8594C276.027 64.2519 273.897 61.9819 272.405 59.0488C270.914 56.099 270.168 52.6267 270.168 48.6328C270.168 44.7054 270.914 41.2583 272.405 38.292C273.913 35.3092 276.018 32.9892 278.719 31.332C281.42 29.6583 284.594 28.8213 288.239 28.8213ZM288.364 35.8311C286.525 35.8311 284.909 36.2789 283.517 37.1738C282.125 38.0521 281.039 39.2116 280.26 40.6533C279.58 41.9249 279.197 43.3089 279.11 44.8047H297.064C297.048 43.0813 296.674 41.5483 295.945 40.2061C295.216 38.8473 294.197 37.7788 292.888 37C291.595 36.2212 290.088 35.8311 288.364 35.8311Z" fill="#0A0A0A"/>
<path d="M264.555 16.5908V67.4999H255.557V16.5908H264.555Z" fill="#0A0A0A"/>
<path d="M231.624 68.246C227.895 68.246 224.663 67.4257 221.929 65.7851C219.195 64.1444 217.073 61.8492 215.565 58.8994C214.074 55.9496 213.328 52.5026 213.328 48.5585C213.328 44.6144 214.074 41.1591 215.565 38.1927C217.073 35.2264 219.195 32.9229 221.929 31.2822C224.663 29.6416 227.895 28.8213 231.624 28.8213C235.352 28.8213 238.584 29.6416 241.318 31.2822C244.053 32.9229 246.165 35.2264 247.657 38.1927C249.165 41.1591 249.919 44.6144 249.919 48.5585C249.919 52.5026 249.165 55.9496 247.657 58.8994C246.165 61.8492 244.053 64.1444 241.318 65.7851C238.584 67.4257 235.352 68.246 231.624 68.246ZM231.673 61.0372C233.695 61.0372 235.385 60.482 236.744 59.3717C238.103 58.2448 239.114 56.7368 239.777 54.8476C240.456 52.9584 240.796 50.8537 240.796 48.5336C240.796 46.197 240.456 44.0841 239.777 42.1949C239.114 40.2891 238.103 38.7728 236.744 37.6459C235.385 36.519 233.695 35.9555 231.673 35.9555C229.602 35.9555 227.878 36.519 226.503 37.6459C225.144 38.7728 224.125 40.2891 223.445 42.1949C222.782 44.0841 222.451 46.197 222.451 48.5336C222.451 50.8537 222.782 52.9584 223.445 54.8476C224.125 56.7368 225.144 58.2448 226.503 59.3717C227.878 60.482 229.602 61.0372 231.673 61.0372Z" fill="#0A0A0A"/>
<path d="M183.038 45.1278V67.4999H174.039V16.5908H182.839V35.806H183.286C184.181 33.6517 185.565 31.953 187.438 30.7101C189.327 29.4507 191.73 28.8209 194.646 28.8209C197.298 28.8209 199.61 29.3761 201.582 30.4864C203.554 31.5967 205.078 33.2208 206.156 35.3586C207.249 37.4964 207.796 40.1064 207.796 43.1888V67.4999H198.798V44.5809C198.798 42.0122 198.135 40.0153 196.809 38.5901C195.5 37.1483 193.66 36.4275 191.29 36.4275C189.7 36.4275 188.274 36.7755 187.015 37.4715C185.772 38.151 184.794 39.137 184.082 40.4296C183.386 41.7222 183.038 43.2883 183.038 45.1278Z" fill="#0A0A0A"/>
<path d="M116.671 67.4091L102.303 16.5H112.221L121.394 53.9112H121.866L131.66 16.5H140.683L150.502 53.9361H150.95L160.122 16.5H170.041L155.673 67.4091H146.575L136.383 31.6882H135.985L125.769 67.4091H116.671Z" fill="#0A0A0A"/>
<path fill-rule="evenodd" clip-rule="evenodd" d="M482.086 17H471.086L462.086 30.5L467.586 38.75L482.086 17Z" fill="#0A0A0A"/>
<path d="M437.086 16.9995L454.086 42.4995L437.086 67.9995H448.086L459.586 50.7495L471.086 67.9995H482.086L465.086 42.4995L459.586 34.2495L448.086 16.9995H437.086Z" fill="#0A0A0A"/>
<path d="M42 84C65.196 84 84 65.196 84 42C84 18.804 65.196 0 42 0C18.804 0 0 18.804 0 42C0 65.196 18.804 84 42 84Z" fill="#5556FF"/>
<path fill-rule="evenodd" clip-rule="evenodd" d="M48.6992 39.2324L48.7197 39.2358C48.7129 39.2349 48.7061 39.2334 48.6992 39.2324Z" fill="white"/>
<path fill-rule="evenodd" clip-rule="evenodd" d="M19.8908 17.9707C19.8781 18.0507 19.8723 18.1323 19.8733 18.2148C19.8733 18.0854 19.8879 17.9575 19.9201 17.8344C19.9084 17.8793 19.8986 17.9248 19.8908 17.9707Z" fill="white"/>
<path fill-rule="evenodd" clip-rule="evenodd" d="M22.88 54.3972C22.88 54.4035 22.881 54.4055 22.881 54.4118L22.88 54.3972ZM19.8751 18.2146C19.8751 18.091 19.8878 17.969 19.9171 17.8508C19.9073 17.8899 19.8995 17.9299 19.8927 17.97C19.88 18.05 19.8741 18.1316 19.8751 18.2146Z" fill="white"/>
<path fill-rule="evenodd" clip-rule="evenodd" d="M43.286 36.8852C43.4514 36.8514 43.5974 36.774 43.7154 36.6673C43.8441 36.5511 43.9384 36.4002 43.987 36.232C44.0273 36.0913 44.0357 35.9386 44.0047 35.7843L41.1082 21.4532C41.0055 20.9426 40.514 20.6205 40.019 20.7222L25.808 23.6431C25.313 23.7448 24.9849 24.2353 25.0876 24.746L27.9842 39.077C28.0501 39.3996 28.2709 39.6468 28.549 39.7588C28.711 39.8239 28.8924 39.8434 29.074 39.8064L43.286 36.8852Z" fill="white"/>
<path fill-rule="evenodd" clip-rule="evenodd" d="M47.3446 56.5131C47.8386 56.4117 48.1659 55.9223 48.0633 55.4122L45.1668 41.0811C45.0641 40.5705 44.5726 40.2484 44.0776 40.3501L29.8666 43.2711C29.3716 43.3727 29.0435 43.8633 29.1462 44.3739L32.0428 58.705C32.1113 59.0408 32.3472 59.2944 32.6418 59.3994C32.726 59.4294 32.8142 59.4476 32.9059 59.4519C32.9805 59.4554 33.0565 59.4496 33.1326 59.4343L47.3446 56.5131Z" fill="white"/>
<path fill-rule="evenodd" clip-rule="evenodd" d="M62.7548 32.7948C62.9354 32.758 63.0938 32.6686 63.2168 32.5451C63.4306 32.332 63.5385 32.0173 63.4734 31.6939L60.5769 17.3629C60.5017 16.9888 60.2176 16.7158 59.8764 16.6366C59.7523 16.6077 59.6196 16.6048 59.4878 16.6318L45.2767 19.5528C44.7818 19.6544 44.4537 20.145 44.5564 20.6556L47.4529 34.9867C47.5221 35.3256 47.7626 35.5814 48.0611 35.6845C48.211 35.7368 48.3764 35.75 48.5427 35.716L62.7548 32.7948Z" fill="white"/>
<path fill-rule="evenodd" clip-rule="evenodd" d="M66.8056 52.4281C67.1535 52.3566 67.4193 52.0924 67.5097 51.7643C67.5475 51.6267 67.5545 51.478 67.5242 51.3272L64.6277 36.9962C64.5854 36.786 64.4777 36.6075 64.3302 36.4777C64.1197 36.2924 63.8297 36.2055 63.5386 36.2651L49.3275 39.1861C48.8325 39.2877 48.5045 39.7783 48.6072 40.2889L51.5037 54.62C51.576 54.9746 51.8349 55.2378 52.1526 55.3313C52.2918 55.372 52.4424 55.3802 52.5935 55.3493L66.8056 52.4281Z" fill="white"/>
<path d="M15.7483 21.066C18.2284 20.5509 20.6464 22.1543 21.1638 24.6422L27.54 55.6502C27.7369 56.6083 27.1276 57.5487 26.1693 57.7517L26.1408 57.7569L26.0166 57.7763L26.0011 57.7789L25.9855 57.7802C25.9526 57.7833 25.8809 57.7899 25.8134 57.7905C25.0789 57.7902 24.4314 57.3343 24.1687 56.6722C24.1471 56.6179 24.1282 56.5626 24.1118 56.5053L24.1054 56.4833L24.0834 56.3914L24.0795 56.3746L17.7032 25.3652C17.6275 25.0011 17.377 24.7206 17.0589 24.5952C16.8801 24.5243 16.6778 24.5025 16.4739 24.5446L16.4377 24.5524L16.3601 24.5744L16.2643 24.6106C16.2066 24.636 16.1498 24.6678 16.0935 24.7064C15.9807 24.7847 15.8833 24.8839 15.81 24.9975L15.8025 25.009C15.7881 25.0311 15.7728 25.0546 15.7595 25.079L15.7505 25.0971C15.667 25.2591 15.6284 25.4411 15.6352 25.6238L15.6572 25.7921L16.2677 28.7453C16.4642 29.7023 15.8562 30.6447 14.9009 30.848C13.9997 31.0361 13.1227 30.4998 12.8551 29.6443L12.8486 29.6223L12.8163 29.4994L12.8124 29.4851L12.8098 29.4709L12.2019 26.5255L12.1605 26.3003C11.9802 25.172 12.2275 24.0156 12.8532 23.056L12.9826 22.8671C13.6465 21.9417 14.6326 21.2998 15.7483 21.066Z" fill="white"/>
<path d="M28.2073 60.1636C30.9909 60.2922 33.347 62.3046 33.9218 65.0674C34.61 68.397 32.4913 71.6699 29.1765 72.364C28.7597 72.4535 28.3378 72.4959 27.9159 72.4962L27.617 72.492L27.5963 72.4907C24.4608 72.3243 21.9602 69.7838 21.8076 66.6319L21.8001 66.3303L21.8001 66.3161C21.8056 62.9126 24.5515 60.1508 27.9369 60.1569L28.2073 60.1636ZM27.9287 63.7131C27.7449 63.7129 27.5676 63.7303 27.398 63.7664L27.266 63.796C25.9444 64.1456 25.1034 65.4881 25.3869 66.8601C25.6524 68.1467 26.8112 69.0115 28.0652 68.9401L28.3176 68.9125L28.4509 68.8867C29.7983 68.6025 30.6885 67.304 30.4839 65.9405L30.4581 65.7943L30.4014 65.5716C30.0736 64.4759 29.0739 63.7154 27.9287 63.7131Z" fill="white"/>
<path d="M72.3821 55.8732C72.6847 56.1225 72.9083 56.4734 72.9959 56.8863C73.1196 57.4817 72.9289 58.071 72.539 58.4803C72.302 58.7292 71.9899 58.912 71.6288 58.9887L38.5222 65.9414C38.4031 65.9659 38.2776 65.9781 38.1585 65.978C37.1789 65.9778 36.3902 65.178 36.3936 64.1984C36.3956 63.3604 36.9825 62.6382 37.7953 62.4629L70.9045 55.5089C71.4494 55.3955 71.9851 55.5467 72.3821 55.8732Z" fill="white"/>
</svg>
