<svg width="395" height="56" viewBox="0 0 395 56" fill="none" xmlns="http://www.w3.org/2000/svg">
<g clip-path="url(#clip0_31914_7803)">
<mask id="mask0_31914_7803" style="mask-type:luminance" maskUnits="userSpaceOnUse" x="0" y="0" width="395" height="56">
<path d="M395 0H0V56H395V0Z" fill="white"/>
</mask>
<g mask="url(#mask0_31914_7803)">
<path d="M2 0.5H393C393.828 0.5 394.5 1.17157 394.5 2V54C394.5 54.8284 393.828 55.5 393 55.5H2C1.17157 55.5 0.5 54.8284 0.5 54V2C0.5 1.17157 1.17157 0.5 2 0.5Z" stroke="#949494"/>
<path d="M23.1924 31.9268V33H18.2157V31.9268H23.1924ZM18.4755 23.0469V33H17.1562V23.0469H18.4755ZM28.8731 31.7354V27.9277C28.8731 27.6361 28.8137 27.3831 28.6952 27.1689C28.5813 26.9502 28.4082 26.7816 28.1758 26.6631C27.9434 26.5446 27.6562 26.4854 27.3144 26.4854C26.9954 26.4854 26.7151 26.54 26.4736 26.6494C26.2366 26.7588 26.0497 26.9023 25.913 27.0801C25.7808 27.2578 25.7148 27.4492 25.7148 27.6543H24.4501C24.4501 27.39 24.5186 27.1279 24.6553 26.8682C24.792 26.6084 24.988 26.3737 25.2432 26.1641C25.503 25.9499 25.8127 25.7812 26.1728 25.6582C26.5374 25.5306 26.9431 25.4668 27.3897 25.4668C27.9274 25.4668 28.4013 25.5579 28.8114 25.7402C29.2262 25.9225 29.5498 26.1982 29.7822 26.5674C30.0192 26.932 30.1376 27.39 30.1376 27.9414V31.3867C30.1376 31.6328 30.1581 31.8949 30.1992 32.1729C30.2448 32.4508 30.3108 32.6901 30.3974 32.8906V33H29.0781C29.0143 32.8542 28.9641 32.6605 28.9277 32.4189C28.8912 32.1729 28.8731 31.945 28.8731 31.7354ZM29.0917 28.5156L29.1054 29.4043H27.8272C27.4671 29.4043 27.1459 29.4339 26.8633 29.4932C26.5808 29.5479 26.3437 29.6322 26.1523 29.7461C25.9609 29.86 25.815 30.0036 25.7148 30.1768C25.6145 30.3454 25.5644 30.5436 25.5644 30.7715C25.5644 31.0039 25.6168 31.2158 25.7216 31.4072C25.8264 31.5986 25.9837 31.7513 26.1933 31.8652C26.4075 31.9746 26.6695 32.0293 26.9795 32.0293C27.3668 32.0293 27.7087 31.9473 28.0049 31.7832C28.3011 31.6191 28.5358 31.4186 28.709 31.1816C28.8867 30.9447 28.9824 30.7145 28.996 30.4912L29.5361 31.0996C29.5042 31.291 29.4177 31.5029 29.2764 31.7354C29.135 31.9678 28.946 32.1911 28.709 32.4053C28.4766 32.6149 28.1986 32.7904 27.875 32.9316C27.556 33.0684 27.1959 33.1367 26.7948 33.1367C26.2935 33.1367 25.8538 33.0387 25.4755 32.8428C25.1018 32.6468 24.8101 32.3848 24.6005 32.0566C24.3954 31.724 24.2929 31.3525 24.2929 30.9424C24.2929 30.5459 24.3705 30.1973 24.5254 29.8965C24.6804 29.5911 24.9036 29.3382 25.1952 29.1377C25.4869 28.9326 25.8379 28.7777 26.2481 28.6729C26.6582 28.568 27.1161 28.5156 27.622 28.5156H29.0917ZM32.12 22.5H33.3915V31.5645L33.2822 33H32.12V22.5ZM38.3886 29.2402V29.3838C38.3886 29.9215 38.3249 30.4206 38.1973 30.8809C38.0697 31.3366 37.8827 31.7331 37.6367 32.0703C37.3906 32.4076 37.0898 32.6696 36.7343 32.8564C36.3788 33.0433 35.9711 33.1367 35.5107 33.1367C35.0413 33.1367 34.6288 33.057 34.2734 32.8975C33.9224 32.7334 33.6263 32.4987 33.3848 32.1934C33.1433 31.888 32.9495 31.5189 32.8036 31.0859C32.6624 30.653 32.5645 30.1654 32.5098 29.623V28.9941C32.5645 28.4473 32.6624 27.9574 32.8036 27.5244C32.9495 27.0915 33.1433 26.7223 33.3848 26.417C33.6263 26.1071 33.9224 25.8724 34.2734 25.7129C34.6243 25.5488 35.0322 25.4668 35.4971 25.4668C35.9619 25.4668 36.3743 25.5579 36.7343 25.7402C37.0943 25.918 37.3951 26.1732 37.6367 26.5059C37.8827 26.8385 38.0697 27.2373 38.1973 27.7021C38.3249 28.1624 38.3886 28.6751 38.3886 29.2402ZM37.1171 29.3838V29.2402C37.1171 28.8711 37.0829 28.5247 37.0146 28.2012C36.9462 27.873 36.8369 27.5859 36.6865 27.3398C36.5362 27.0892 36.3379 26.8932 36.0918 26.752C35.8457 26.6061 35.5426 26.5332 35.1825 26.5332C34.8635 26.5332 34.5855 26.5879 34.3486 26.6973C34.1161 26.8066 33.9179 26.9548 33.7538 27.1416C33.5898 27.3239 33.4554 27.5335 33.3506 27.7705C33.2503 28.0029 33.1751 28.2445 33.125 28.4951V30.1426C33.1979 30.4616 33.3163 30.7692 33.4804 31.0654C33.649 31.3571 33.8723 31.5964 34.1503 31.7832C34.4329 31.9701 34.7816 32.0635 35.1963 32.0635C35.5381 32.0635 35.8298 31.9951 36.0713 31.8584C36.3174 31.7171 36.5156 31.5234 36.666 31.2773C36.821 31.0312 36.9349 30.7464 37.0078 30.4229C37.0808 30.0993 37.1171 29.7529 37.1171 29.3838ZM43.0575 33.1367C42.5426 33.1367 42.0755 33.0501 41.6562 32.877C41.2416 32.6992 40.8838 32.4508 40.583 32.1318C40.2868 31.8128 40.0588 31.4346 39.8993 30.9971C39.7398 30.5596 39.6601 30.0811 39.6601 29.5615V29.2744C39.6601 28.6729 39.749 28.1374 39.9268 27.668C40.1045 27.194 40.346 26.793 40.6513 26.4648C40.9566 26.1367 41.303 25.8883 41.6904 25.7197C42.0777 25.5511 42.4789 25.4668 42.8936 25.4668C43.4222 25.4668 43.878 25.5579 44.2607 25.7402C44.6481 25.9225 44.9648 26.1777 45.2109 26.5059C45.457 26.8294 45.6393 27.2122 45.7578 27.6543C45.8763 28.0918 45.9356 28.5703 45.9356 29.0898V29.6572H40.412V28.625H44.6708V28.5293C44.6526 28.2012 44.5843 27.8822 44.4658 27.5723C44.3519 27.2624 44.1695 27.0072 43.9189 26.8066C43.6682 26.6061 43.3265 26.5059 42.8936 26.5059C42.6065 26.5059 42.3421 26.5674 42.1006 26.6904C41.8591 26.8089 41.6517 26.9867 41.4785 27.2236C41.3054 27.4606 41.1708 27.75 41.0751 28.0918C40.9795 28.4336 40.9316 28.8278 40.9316 29.2744V29.5615C40.9316 29.9124 40.9795 30.2428 41.0751 30.5527C41.1754 30.8581 41.319 31.127 41.5059 31.3594C41.6973 31.5918 41.9274 31.7741 42.1963 31.9062C42.4698 32.0384 42.7796 32.1045 43.1259 32.1045C43.5725 32.1045 43.9508 32.0133 44.2607 31.8311C44.5707 31.6488 44.8417 31.4049 45.0742 31.0996L45.8399 31.708C45.6804 31.9495 45.4775 32.1797 45.2314 32.3984C44.9853 32.6172 44.6823 32.7949 44.3223 32.9316C43.9668 33.0684 43.5452 33.1367 43.0575 33.1367ZM48.7861 22.5V33H47.5146V22.5H48.7861Z" fill="#6C6E77"/>
</g>
</g>
<defs>
<clipPath id="clip0_31914_7803">
<rect width="395" height="56" fill="white"/>
</clipPath>
</defs>
</svg>
