<svg width="395" height="86" viewBox="0 0 395 86" fill="none" xmlns="http://www.w3.org/2000/svg">
<g clip-path="url(#clip0_31914_7775)">
<mask id="path-1-inside-1_31914_7775" fill="white">
<path d="M0 0H395V86H0V0Z"/>
</mask>
<mask id="mask0_31914_7775" style="mask-type:luminance" maskUnits="userSpaceOnUse" x="0" y="0" width="395" height="86">
<path d="M395 0H0V86H395V0Z" fill="white"/>
</mask>
<g mask="url(#mask0_31914_7775)">
<path d="M7.19239 14.9268V16H2.21582V14.9268H7.19239ZM2.47559 6.04688V16H1.15625V6.04688H2.47559ZM12.8731 14.7354V10.9277C12.8731 10.6361 12.8138 10.3831 12.6953 10.1689C12.5814 9.9502 12.4082 9.78158 12.1758 9.66309C11.9434 9.5446 11.6563 9.48535 11.3145 9.48535C10.9955 9.48535 10.7152 9.54004 10.4737 9.64941C10.2367 9.75879 10.0498 9.90234 9.91309 10.0801C9.78093 10.2578 9.71485 10.4492 9.71485 10.6543H8.4502C8.4502 10.39 8.51856 10.1279 8.65528 9.86816C8.792 9.6084 8.98796 9.3737 9.24317 9.16406C9.50293 8.94987 9.81283 8.78125 10.1729 8.6582C10.5375 8.5306 10.9431 8.4668 11.3897 8.4668C11.9274 8.4668 12.4014 8.55794 12.8115 8.74023C13.2263 8.92253 13.5498 9.19824 13.7822 9.56738C14.0192 9.93197 14.1377 10.39 14.1377 10.9414V14.3867C14.1377 14.6328 14.1582 14.8949 14.1992 15.1729C14.2448 15.4508 14.3109 15.6901 14.3975 15.8906V16H13.0781C13.0143 15.8542 12.9642 15.6605 12.9278 15.4189C12.8913 15.1729 12.8731 14.945 12.8731 14.7354ZM13.0918 11.5156L13.1055 12.4043H11.8272C11.4671 12.4043 11.1459 12.4339 10.8633 12.4932C10.5808 12.5479 10.3438 12.6322 10.1524 12.7461C9.96094 12.86 9.81511 13.0036 9.71485 13.1768C9.61459 13.3454 9.56446 13.5436 9.56446 13.7715C9.56446 14.0039 9.61687 14.2158 9.72168 14.4072C9.8265 14.5986 9.98373 14.7513 10.1934 14.8652C10.4076 14.9746 10.6696 15.0293 10.9795 15.0293C11.3669 15.0293 11.7087 14.9473 12.0049 14.7832C12.3011 14.6191 12.5358 14.4186 12.709 14.1816C12.8867 13.9447 12.9824 13.7145 12.9961 13.4912L13.5362 14.0996C13.5043 14.291 13.4177 14.5029 13.2764 14.7354C13.1351 14.9678 12.946 15.1911 12.709 15.4053C12.4766 15.6149 12.1986 15.7904 11.875 15.9316C11.556 16.0684 11.196 16.1367 10.7949 16.1367C10.2936 16.1367 9.85384 16.0387 9.47559 15.8428C9.10189 15.6468 8.81022 15.3848 8.60059 15.0566C8.39551 14.724 8.29297 14.3525 8.29297 13.9424C8.29297 13.5459 8.37045 13.1973 8.52539 12.8965C8.68034 12.5911 8.90365 12.3382 9.19532 12.1377C9.48698 11.9326 9.83789 11.7777 10.2481 11.6729C10.6582 11.568 11.1162 11.5156 11.6221 11.5156H13.0918ZM16.1201 5.5H17.3916V14.5645L17.2822 16H16.1201V5.5ZM22.3887 12.2402V12.3838C22.3887 12.9215 22.3249 13.4206 22.1973 13.8809C22.0697 14.3366 21.8828 14.7331 21.6367 15.0703C21.3906 15.4076 21.0899 15.6696 20.7344 15.8564C20.3789 16.0433 19.9711 16.1367 19.5108 16.1367C19.0414 16.1367 18.6289 16.057 18.2735 15.8975C17.9225 15.7334 17.6263 15.4987 17.3848 15.1934C17.1433 14.888 16.9496 14.5189 16.8037 14.0859C16.6625 13.653 16.5645 13.1654 16.5098 12.623V11.9941C16.5645 11.4473 16.6625 10.9574 16.8037 10.5244C16.9496 10.0915 17.1433 9.72233 17.3848 9.41699C17.6263 9.1071 17.9225 8.8724 18.2735 8.71289C18.6244 8.54883 19.0322 8.4668 19.4971 8.4668C19.9619 8.4668 20.3744 8.55794 20.7344 8.74023C21.0944 8.91797 21.3952 9.17318 21.6367 9.50586C21.8828 9.83854 22.0697 10.2373 22.1973 10.7021C22.3249 11.1624 22.3887 11.6751 22.3887 12.2402ZM21.1172 12.3838V12.2402C21.1172 11.8711 21.083 11.5247 21.0147 11.2012C20.9463 10.873 20.8369 10.5859 20.6865 10.3398C20.5362 10.0892 20.3379 9.89323 20.0918 9.75195C19.8457 9.60612 19.5427 9.5332 19.1826 9.5332C18.8636 9.5332 18.5856 9.58789 18.3487 9.69727C18.1162 9.80664 17.918 9.95475 17.7539 10.1416C17.5899 10.3239 17.4554 10.5335 17.3506 10.7705C17.2503 11.0029 17.1752 11.2445 17.125 11.4951V13.1426C17.1979 13.4616 17.3164 13.7692 17.4805 14.0654C17.6491 14.3571 17.8724 14.5964 18.1504 14.7832C18.433 14.9701 18.7816 15.0635 19.1963 15.0635C19.5381 15.0635 19.8298 14.9951 20.0713 14.8584C20.3174 14.7171 20.5156 14.5234 20.666 14.2773C20.821 14.0312 20.9349 13.7464 21.0078 13.4229C21.0808 13.0993 21.1172 12.7529 21.1172 12.3838ZM27.0576 16.1367C26.5427 16.1367 26.0755 16.0501 25.6563 15.877C25.2416 15.6992 24.8838 15.4508 24.583 15.1318C24.2868 14.8128 24.0589 14.4346 23.8994 13.9971C23.7399 13.5596 23.6602 13.0811 23.6602 12.5615V12.2744C23.6602 11.6729 23.749 11.1374 23.9268 10.668C24.1045 10.194 24.3461 9.79297 24.6514 9.46484C24.9567 9.13672 25.3031 8.88835 25.6905 8.71973C26.0778 8.55111 26.4789 8.4668 26.8936 8.4668C27.4222 8.4668 27.878 8.55794 28.2608 8.74023C28.6481 8.92253 28.9649 9.17773 29.211 9.50586C29.4571 9.82943 29.6393 10.2122 29.7578 10.6543C29.8763 11.0918 29.9356 11.5703 29.9356 12.0898V12.6572H24.4121V11.625H28.6709V11.5293C28.6527 11.2012 28.5843 10.8822 28.4658 10.5723C28.3519 10.2624 28.1696 10.0072 27.919 9.80664C27.6683 9.60612 27.3265 9.50586 26.8936 9.50586C26.6065 9.50586 26.3421 9.56738 26.1006 9.69043C25.8591 9.80892 25.6517 9.98665 25.4785 10.2236C25.3054 10.4606 25.1709 10.75 25.0752 11.0918C24.9795 11.4336 24.9317 11.8278 24.9317 12.2744V12.5615C24.9317 12.9124 24.9795 13.2428 25.0752 13.5527C25.1755 13.8581 25.319 14.127 25.5059 14.3594C25.6973 14.5918 25.9274 14.7741 26.1963 14.9062C26.4698 15.0384 26.7796 15.1045 27.126 15.1045C27.5726 15.1045 27.9509 15.0133 28.2608 14.8311C28.5707 14.6488 28.8418 14.4049 29.0742 14.0996L29.8399 14.708C29.6804 14.9495 29.4776 15.1797 29.2315 15.3984C28.9854 15.6172 28.6823 15.7949 28.3223 15.9316C27.9668 16.0684 27.5453 16.1367 27.0576 16.1367ZM32.7862 5.5V16H31.5147V5.5H32.7862Z" fill="#343A46"/>
<path d="M18.5693 53.0469V63H17.25V53.0469H18.5693ZM22.042 57.1826V63H20.7773V55.6035H21.9736L22.042 57.1826ZM21.7412 59.0215L21.2148 59.001C21.2194 58.4951 21.2946 58.028 21.4404 57.5996C21.5862 57.1667 21.7913 56.7907 22.0556 56.4717C22.32 56.1527 22.6344 55.9066 22.999 55.7334C23.3681 55.5557 23.776 55.4668 24.2226 55.4668C24.5872 55.4668 24.9153 55.5169 25.207 55.6172C25.4987 55.7129 25.747 55.8678 25.9521 56.082C26.1618 56.2962 26.3213 56.5742 26.4306 56.916C26.54 57.2533 26.5947 57.6657 26.5947 58.1533V63H25.3232V58.1396C25.3232 57.7523 25.2663 57.4424 25.1523 57.21C25.0384 56.973 24.872 56.8021 24.6533 56.6973C24.4345 56.5879 24.1657 56.5332 23.8467 56.5332C23.5322 56.5332 23.2451 56.5993 22.9853 56.7314C22.7301 56.8636 22.5091 57.0459 22.3222 57.2783C22.14 57.5107 21.9964 57.7773 21.8916 58.0781C21.7913 58.3743 21.7412 58.6888 21.7412 59.0215ZM29.7802 57.0254V65.8438H28.5088V55.6035H29.6709L29.7802 57.0254ZM34.7636 59.2402V59.3838C34.7636 59.9215 34.6998 60.4206 34.5722 60.8809C34.4446 61.3366 34.2578 61.7331 34.0117 62.0703C33.7702 62.4076 33.4717 62.6696 33.1162 62.8564C32.7607 63.0433 32.3528 63.1367 31.8926 63.1367C31.4232 63.1367 31.0084 63.0592 30.6484 62.9043C30.2884 62.7493 29.983 62.5238 29.7324 62.2275C29.4817 61.9313 29.2812 61.5758 29.1308 61.1611C28.985 60.7464 28.8847 60.2793 28.8301 59.7598V58.9941C28.8847 58.4473 28.9873 57.9574 29.1377 57.5244C29.2881 57.0915 29.4863 56.7223 29.7324 56.417C29.983 56.1071 30.2861 55.8724 30.6416 55.7129C30.997 55.5488 31.4072 55.4668 31.872 55.4668C32.3369 55.4668 32.7493 55.5579 33.1094 55.7402C33.4694 55.918 33.7724 56.1732 34.0185 56.5059C34.2646 56.8385 34.4492 57.2373 34.5722 57.7021C34.6998 58.1624 34.7636 58.6751 34.7636 59.2402ZM33.4922 59.3838V59.2402C33.4922 58.8711 33.4534 58.5247 33.376 58.2012C33.2985 57.873 33.1777 57.5859 33.0136 57.3398C32.8541 57.0892 32.6491 56.8932 32.3984 56.752C32.1478 56.6061 31.8493 56.5332 31.5029 56.5332C31.1839 56.5332 30.9059 56.5879 30.6689 56.6973C30.4365 56.8066 30.2383 56.9548 30.0742 57.1416C29.9101 57.3239 29.7757 57.5335 29.6709 57.7705C29.5706 58.0029 29.4954 58.2445 29.4453 58.4951V60.2656C29.5364 60.5846 29.664 60.8854 29.8281 61.168C29.9922 61.446 30.2109 61.6715 30.4844 61.8447C30.7578 62.0133 31.1019 62.0977 31.5166 62.0977C31.8584 62.0977 32.1523 62.027 32.3984 61.8857C32.6491 61.7399 32.8541 61.5417 33.0136 61.291C33.1777 61.0404 33.2985 60.7533 33.376 60.4297C33.4534 60.1016 33.4922 59.7529 33.4922 59.3838ZM40.9023 61.291V55.6035H42.1738V63H40.9638L40.9023 61.291ZM41.1416 59.7324L41.6679 59.7188C41.6679 60.2109 41.6155 60.6667 41.5107 61.0859C41.4105 61.5007 41.2464 61.8607 41.0185 62.166C40.7907 62.4714 40.4922 62.7106 40.123 62.8838C39.7539 63.0524 39.305 63.1367 38.7763 63.1367C38.4163 63.1367 38.0859 63.0843 37.7851 62.9795C37.4889 62.8747 37.2337 62.7129 37.0195 62.4941C36.8053 62.2754 36.639 61.9906 36.5205 61.6396C36.4066 61.2887 36.3496 60.8672 36.3496 60.375V55.6035H37.6142V60.3887C37.6142 60.7214 37.6507 60.9971 37.7236 61.2158C37.8011 61.43 37.9036 61.6009 38.0312 61.7285C38.1634 61.8516 38.3092 61.9382 38.4687 61.9883C38.6328 62.0384 38.8014 62.0635 38.9746 62.0635C39.5123 62.0635 39.9385 61.9609 40.2529 61.7559C40.5674 61.5462 40.7929 61.266 40.9297 60.915C41.0709 60.5596 41.1416 60.1654 41.1416 59.7324ZM47.1982 55.6035V56.5742H43.1992V55.6035H47.1982ZM44.5527 53.8057H45.8174V61.168C45.8174 61.4186 45.8561 61.6077 45.9336 61.7354C46.011 61.863 46.1113 61.9473 46.2344 61.9883C46.3574 62.0293 46.4896 62.0498 46.6308 62.0498C46.7357 62.0498 46.845 62.0407 46.959 62.0225C47.0775 61.9997 47.1663 61.9814 47.2256 61.9678L47.2324 63C47.1321 63.0319 47 63.0615 46.8359 63.0889C46.6764 63.1208 46.4827 63.1367 46.2549 63.1367C45.945 63.1367 45.6601 63.0752 45.4004 62.9521C45.1406 62.8291 44.9332 62.624 44.7783 62.3369C44.6279 62.0452 44.5527 61.6533 44.5527 61.1611V53.8057ZM55.75 53.0469V63H54.4511V53.0469H55.75ZM58.9492 53.0469V54.127H51.2588V53.0469H58.9492ZM62.6201 63.1367C62.1051 63.1367 61.638 63.0501 61.2187 62.877C60.804 62.6992 60.4463 62.4508 60.1455 62.1318C59.8493 61.8128 59.6214 61.4346 59.4619 60.9971C59.3024 60.5596 59.2226 60.0811 59.2226 59.5615V59.2744C59.2226 58.6729 59.3115 58.1374 59.4892 57.668C59.667 57.194 59.9085 56.793 60.2138 56.4648C60.5192 56.1367 60.8655 55.8883 61.2529 55.7197C61.6403 55.5511 62.0413 55.4668 62.456 55.4668C62.9847 55.4668 63.4404 55.5579 63.8232 55.7402C64.2106 55.9225 64.5273 56.1777 64.7734 56.5059C65.0195 56.8294 65.2018 57.2122 65.3203 57.6543C65.4388 58.0918 65.498 58.5703 65.498 59.0898V59.6572H59.9746V58.625H64.2334V58.5293C64.2151 58.2012 64.1468 57.8822 64.0283 57.5723C63.9144 57.2624 63.7321 57.0072 63.4814 56.8066C63.2308 56.6061 62.889 56.5059 62.456 56.5059C62.1689 56.5059 61.9046 56.5674 61.6631 56.6904C61.4215 56.8089 61.2142 56.9867 61.041 57.2236C60.8678 57.4606 60.7334 57.75 60.6377 58.0918C60.542 58.4336 60.4941 58.8278 60.4941 59.2744V59.5615C60.4941 59.9124 60.542 60.2428 60.6377 60.5527C60.7379 60.8581 60.8815 61.127 61.0683 61.3594C61.2597 61.5918 61.4899 61.7741 61.7588 61.9062C62.0322 62.0384 62.3421 62.1045 62.6885 62.1045C63.1351 62.1045 63.5133 62.0133 63.8232 61.8311C64.1331 61.6488 64.4043 61.4049 64.6367 61.0996L65.4023 61.708C65.2428 61.9495 65.04 62.1797 64.7939 62.3984C64.5478 62.6172 64.2448 62.7949 63.8847 62.9316C63.5293 63.0684 63.1077 63.1367 62.6201 63.1367ZM67.8291 55.6035L69.4492 58.2969L71.0898 55.6035H72.5732L70.1533 59.2539L72.6484 63H71.1855L69.4765 60.2246L67.7676 63H66.2978L68.7861 59.2539L66.373 55.6035H67.8291ZM77.0166 55.6035V56.5742H73.0176V55.6035H77.0166ZM74.3711 53.8057H75.6357V61.168C75.6357 61.4186 75.6745 61.6077 75.7519 61.7354C75.8294 61.863 75.9297 61.9473 76.0527 61.9883C76.1758 62.0293 76.3079 62.0498 76.4492 62.0498C76.554 62.0498 76.6634 62.0407 76.7773 62.0225C76.8958 61.9997 76.9847 61.9814 77.0439 61.9678L77.0508 63C76.9505 63.0319 76.8183 63.0615 76.6543 63.0889C76.4948 63.1208 76.3011 63.1367 76.0732 63.1367C75.7633 63.1367 75.4785 63.0752 75.2187 62.9521C74.959 62.8291 74.7516 62.624 74.5967 62.3369C74.4463 62.0452 74.3711 61.6533 74.3711 61.1611V53.8057Z" fill="#6C6E77"/>
</g>
</g>
<path d="M395 86V85H0V86V87H395V86Z" fill="#949494" mask="url(#path-1-inside-1_31914_7775)"/>
<defs>
<clipPath id="clip0_31914_7775">
<path d="M0 0H395V86H0V0Z" fill="white"/>
</clipPath>
</defs>
</svg>
