<svg width="395" height="56" viewBox="0 0 395 56" fill="none" xmlns="http://www.w3.org/2000/svg">
<g clip-path="url(#clip0_31914_7795)">
<mask id="mask0_31914_7795" style="mask-type:luminance" maskUnits="userSpaceOnUse" x="0" y="0" width="395" height="56">
<path d="M395 0H0V56H395V0Z" fill="white"/>
</mask>
<g mask="url(#mask0_31914_7795)">
<path d="M2 0.5H393C393.828 0.5 394.5 1.17157 394.5 2V54C394.5 54.8284 393.828 55.5 393 55.5H2C1.17157 55.5 0.5 54.8284 0.5 54V2C0.5 1.17157 1.17157 0.5 2 0.5Z" stroke="#949494"/>
<path d="M23.1924 20.9268V22H18.2157V20.9268H23.1924ZM18.4755 12.0469V22H17.1562V12.0469H18.4755ZM28.8731 20.7354V16.9277C28.8731 16.6361 28.8137 16.3831 28.6952 16.1689C28.5813 15.9502 28.4082 15.7816 28.1758 15.6631C27.9434 15.5446 27.6562 15.4854 27.3144 15.4854C26.9954 15.4854 26.7151 15.54 26.4736 15.6494C26.2366 15.7588 26.0497 15.9023 25.913 16.0801C25.7808 16.2578 25.7148 16.4492 25.7148 16.6543H24.4501C24.4501 16.39 24.5186 16.1279 24.6553 15.8682C24.792 15.6084 24.988 15.3737 25.2432 15.1641C25.503 14.9499 25.8127 14.7812 26.1728 14.6582C26.5374 14.5306 26.9431 14.4668 27.3897 14.4668C27.9274 14.4668 28.4013 14.5579 28.8114 14.7402C29.2262 14.9225 29.5498 15.1982 29.7822 15.5674C30.0192 15.932 30.1376 16.39 30.1376 16.9414V20.3867C30.1376 20.6328 30.1581 20.8949 30.1992 21.1729C30.2448 21.4508 30.3108 21.6901 30.3974 21.8906V22H29.0781C29.0143 21.8542 28.9641 21.6605 28.9277 21.4189C28.8912 21.1729 28.8731 20.945 28.8731 20.7354ZM29.0917 17.5156L29.1054 18.4043H27.8272C27.4671 18.4043 27.1459 18.4339 26.8633 18.4932C26.5808 18.5479 26.3437 18.6322 26.1523 18.7461C25.9609 18.86 25.815 19.0036 25.7148 19.1768C25.6145 19.3454 25.5644 19.5436 25.5644 19.7715C25.5644 20.0039 25.6168 20.2158 25.7216 20.4072C25.8264 20.5986 25.9837 20.7513 26.1933 20.8652C26.4075 20.9746 26.6695 21.0293 26.9795 21.0293C27.3668 21.0293 27.7087 20.9473 28.0049 20.7832C28.3011 20.6191 28.5358 20.4186 28.709 20.1816C28.8867 19.9447 28.9824 19.7145 28.996 19.4912L29.5361 20.0996C29.5042 20.291 29.4177 20.5029 29.2764 20.7354C29.135 20.9678 28.946 21.1911 28.709 21.4053C28.4766 21.6149 28.1986 21.7904 27.875 21.9316C27.556 22.0684 27.1959 22.1367 26.7948 22.1367C26.2935 22.1367 25.8538 22.0387 25.4755 21.8428C25.1018 21.6468 24.8101 21.3848 24.6005 21.0566C24.3954 20.724 24.2929 20.3525 24.2929 19.9424C24.2929 19.5459 24.3705 19.1973 24.5254 18.8965C24.6804 18.5911 24.9036 18.3382 25.1952 18.1377C25.4869 17.9326 25.8379 17.7777 26.2481 17.6729C26.6582 17.568 27.1161 17.5156 27.622 17.5156H29.0917ZM32.12 11.5H33.3915V20.5645L33.2822 22H32.12V11.5ZM38.3886 18.2402V18.3838C38.3886 18.9215 38.3249 19.4206 38.1973 19.8809C38.0697 20.3366 37.8827 20.7331 37.6367 21.0703C37.3906 21.4076 37.0898 21.6696 36.7343 21.8564C36.3788 22.0433 35.9711 22.1367 35.5107 22.1367C35.0413 22.1367 34.6288 22.057 34.2734 21.8975C33.9224 21.7334 33.6263 21.4987 33.3848 21.1934C33.1433 20.888 32.9495 20.5189 32.8036 20.0859C32.6624 19.653 32.5645 19.1654 32.5098 18.623V17.9941C32.5645 17.4473 32.6624 16.9574 32.8036 16.5244C32.9495 16.0915 33.1433 15.7223 33.3848 15.417C33.6263 15.1071 33.9224 14.8724 34.2734 14.7129C34.6243 14.5488 35.0322 14.4668 35.4971 14.4668C35.9619 14.4668 36.3743 14.5579 36.7343 14.7402C37.0943 14.918 37.3951 15.1732 37.6367 15.5059C37.8827 15.8385 38.0697 16.2373 38.1973 16.7021C38.3249 17.1624 38.3886 17.6751 38.3886 18.2402ZM37.1171 18.3838V18.2402C37.1171 17.8711 37.0829 17.5247 37.0146 17.2012C36.9462 16.873 36.8369 16.5859 36.6865 16.3398C36.5362 16.0892 36.3379 15.8932 36.0918 15.752C35.8457 15.6061 35.5426 15.5332 35.1825 15.5332C34.8635 15.5332 34.5855 15.5879 34.3486 15.6973C34.1161 15.8066 33.9179 15.9548 33.7538 16.1416C33.5898 16.3239 33.4554 16.5335 33.3506 16.7705C33.2503 17.0029 33.1751 17.2445 33.125 17.4951V19.1426C33.1979 19.4616 33.3163 19.7692 33.4804 20.0654C33.649 20.3571 33.8723 20.5964 34.1503 20.7832C34.4329 20.9701 34.7816 21.0635 35.1963 21.0635C35.5381 21.0635 35.8298 20.9951 36.0713 20.8584C36.3174 20.7171 36.5156 20.5234 36.666 20.2773C36.821 20.0312 36.9349 19.7464 37.0078 19.4229C37.0808 19.0993 37.1171 18.7529 37.1171 18.3838ZM43.0575 22.1367C42.5426 22.1367 42.0755 22.0501 41.6562 21.877C41.2416 21.6992 40.8838 21.4508 40.583 21.1318C40.2868 20.8128 40.0588 20.4346 39.8993 19.9971C39.7398 19.5596 39.6601 19.0811 39.6601 18.5615V18.2744C39.6601 17.6729 39.749 17.1374 39.9268 16.668C40.1045 16.194 40.346 15.793 40.6513 15.4648C40.9566 15.1367 41.303 14.8883 41.6904 14.7197C42.0777 14.5511 42.4789 14.4668 42.8936 14.4668C43.4222 14.4668 43.878 14.5579 44.2607 14.7402C44.6481 14.9225 44.9648 15.1777 45.2109 15.5059C45.457 15.8294 45.6393 16.2122 45.7578 16.6543C45.8763 17.0918 45.9356 17.5703 45.9356 18.0898V18.6572H40.412V17.625H44.6708V17.5293C44.6526 17.2012 44.5843 16.8822 44.4658 16.5723C44.3519 16.2624 44.1695 16.0072 43.9189 15.8066C43.6682 15.6061 43.3265 15.5059 42.8936 15.5059C42.6065 15.5059 42.3421 15.5674 42.1006 15.6904C41.8591 15.8089 41.6517 15.9867 41.4785 16.2236C41.3054 16.4606 41.1708 16.75 41.0751 17.0918C40.9795 17.4336 40.9316 17.8278 40.9316 18.2744V18.5615C40.9316 18.9124 40.9795 19.2428 41.0751 19.5527C41.1754 19.8581 41.319 20.127 41.5059 20.3594C41.6973 20.5918 41.9274 20.7741 42.1963 20.9062C42.4698 21.0384 42.7796 21.1045 43.1259 21.1045C43.5725 21.1045 43.9508 21.0133 44.2607 20.8311C44.5707 20.6488 44.8417 20.4049 45.0742 20.0996L45.8399 20.708C45.6804 20.9495 45.4775 21.1797 45.2314 21.3984C44.9853 21.6172 44.6823 21.7949 44.3223 21.9316C43.9668 22.0684 43.5452 22.1367 43.0575 22.1367ZM48.7861 11.5V22H47.5146V11.5H48.7861Z" fill="#343A46"/>
<path d="M18.5693 34.0469V44H17.25V34.0469H18.5693ZM22.042 38.1826V44H20.7773V36.6035H21.9736L22.042 38.1826ZM21.7412 40.0215L21.2148 40.001C21.2194 39.4951 21.2946 39.028 21.4404 38.5996C21.5862 38.1667 21.7913 37.7907 22.0556 37.4717C22.32 37.1527 22.6344 36.9066 22.999 36.7334C23.3681 36.5557 23.776 36.4668 24.2226 36.4668C24.5872 36.4668 24.9153 36.5169 25.207 36.6172C25.4987 36.7129 25.747 36.8678 25.9521 37.082C26.1618 37.2962 26.3213 37.5742 26.4306 37.916C26.54 38.2533 26.5947 38.6657 26.5947 39.1533V44H25.3232V39.1396C25.3232 38.7523 25.2663 38.4424 25.1523 38.21C25.0384 37.973 24.872 37.8021 24.6533 37.6973C24.4345 37.5879 24.1657 37.5332 23.8467 37.5332C23.5322 37.5332 23.2451 37.5993 22.9853 37.7314C22.7301 37.8636 22.5091 38.0459 22.3222 38.2783C22.14 38.5107 21.9964 38.7773 21.8916 39.0781C21.7913 39.3743 21.7412 39.6888 21.7412 40.0215ZM29.7802 38.0254V46.8438H28.5088V36.6035H29.6709L29.7802 38.0254ZM34.7636 40.2402V40.3838C34.7636 40.9215 34.6998 41.4206 34.5722 41.8809C34.4446 42.3366 34.2578 42.7331 34.0117 43.0703C33.7702 43.4076 33.4717 43.6696 33.1162 43.8564C32.7607 44.0433 32.3528 44.1367 31.8926 44.1367C31.4232 44.1367 31.0084 44.0592 30.6484 43.9043C30.2884 43.7493 29.983 43.5238 29.7324 43.2275C29.4817 42.9313 29.2812 42.5758 29.1308 42.1611C28.985 41.7464 28.8847 41.2793 28.8301 40.7598V39.9941C28.8847 39.4473 28.9873 38.9574 29.1377 38.5244C29.2881 38.0915 29.4863 37.7223 29.7324 37.417C29.983 37.1071 30.2861 36.8724 30.6416 36.7129C30.997 36.5488 31.4072 36.4668 31.872 36.4668C32.3369 36.4668 32.7493 36.5579 33.1094 36.7402C33.4694 36.918 33.7724 37.1732 34.0185 37.5059C34.2646 37.8385 34.4492 38.2373 34.5722 38.7021C34.6998 39.1624 34.7636 39.6751 34.7636 40.2402ZM33.4922 40.3838V40.2402C33.4922 39.8711 33.4534 39.5247 33.376 39.2012C33.2985 38.873 33.1777 38.5859 33.0136 38.3398C32.8541 38.0892 32.6491 37.8932 32.3984 37.752C32.1478 37.6061 31.8493 37.5332 31.5029 37.5332C31.1839 37.5332 30.9059 37.5879 30.6689 37.6973C30.4365 37.8066 30.2383 37.9548 30.0742 38.1416C29.9101 38.3239 29.7757 38.5335 29.6709 38.7705C29.5706 39.0029 29.4954 39.2445 29.4453 39.4951V41.2656C29.5364 41.5846 29.664 41.8854 29.8281 42.168C29.9922 42.446 30.2109 42.6715 30.4844 42.8447C30.7578 43.0133 31.1019 43.0977 31.5166 43.0977C31.8584 43.0977 32.1523 43.027 32.3984 42.8857C32.6491 42.7399 32.8541 42.5417 33.0136 42.291C33.1777 42.0404 33.2985 41.7533 33.376 41.4297C33.4534 41.1016 33.4922 40.7529 33.4922 40.3838ZM40.9023 42.291V36.6035H42.1738V44H40.9638L40.9023 42.291ZM41.1416 40.7324L41.6679 40.7188C41.6679 41.2109 41.6155 41.6667 41.5107 42.0859C41.4105 42.5007 41.2464 42.8607 41.0185 43.166C40.7907 43.4714 40.4922 43.7106 40.123 43.8838C39.7539 44.0524 39.305 44.1367 38.7763 44.1367C38.4163 44.1367 38.0859 44.0843 37.7851 43.9795C37.4889 43.8747 37.2337 43.7129 37.0195 43.4941C36.8053 43.2754 36.639 42.9906 36.5205 42.6396C36.4066 42.2887 36.3496 41.8672 36.3496 41.375V36.6035H37.6142V41.3887C37.6142 41.7214 37.6507 41.9971 37.7236 42.2158C37.8011 42.43 37.9036 42.6009 38.0312 42.7285C38.1634 42.8516 38.3092 42.9382 38.4687 42.9883C38.6328 43.0384 38.8014 43.0635 38.9746 43.0635C39.5123 43.0635 39.9385 42.9609 40.2529 42.7559C40.5674 42.5462 40.7929 42.266 40.9297 41.915C41.0709 41.5596 41.1416 41.1654 41.1416 40.7324ZM47.1982 36.6035V37.5742H43.1992V36.6035H47.1982ZM44.5527 34.8057H45.8174V42.168C45.8174 42.4186 45.8561 42.6077 45.9336 42.7354C46.011 42.863 46.1113 42.9473 46.2344 42.9883C46.3574 43.0293 46.4896 43.0498 46.6308 43.0498C46.7357 43.0498 46.845 43.0407 46.959 43.0225C47.0775 42.9997 47.1663 42.9814 47.2256 42.9678L47.2324 44C47.1321 44.0319 47 44.0615 46.8359 44.0889C46.6764 44.1208 46.4827 44.1367 46.2549 44.1367C45.945 44.1367 45.6601 44.0752 45.4004 43.9521C45.1406 43.8291 44.9332 43.624 44.7783 43.3369C44.6279 43.0452 44.5527 42.6533 44.5527 42.1611V34.8057ZM55.75 34.0469V44H54.4511V34.0469H55.75ZM58.9492 34.0469V35.127H51.2588V34.0469H58.9492ZM62.6201 44.1367C62.1051 44.1367 61.638 44.0501 61.2187 43.877C60.804 43.6992 60.4463 43.4508 60.1455 43.1318C59.8493 42.8128 59.6214 42.4346 59.4619 41.9971C59.3024 41.5596 59.2226 41.0811 59.2226 40.5615V40.2744C59.2226 39.6729 59.3115 39.1374 59.4892 38.668C59.667 38.194 59.9085 37.793 60.2138 37.4648C60.5192 37.1367 60.8655 36.8883 61.2529 36.7197C61.6403 36.5511 62.0413 36.4668 62.456 36.4668C62.9847 36.4668 63.4404 36.5579 63.8232 36.7402C64.2106 36.9225 64.5273 37.1777 64.7734 37.5059C65.0195 37.8294 65.2018 38.2122 65.3203 38.6543C65.4388 39.0918 65.498 39.5703 65.498 40.0898V40.6572H59.9746V39.625H64.2334V39.5293C64.2151 39.2012 64.1468 38.8822 64.0283 38.5723C63.9144 38.2624 63.7321 38.0072 63.4814 37.8066C63.2308 37.6061 62.889 37.5059 62.456 37.5059C62.1689 37.5059 61.9046 37.5674 61.6631 37.6904C61.4215 37.8089 61.2142 37.9867 61.041 38.2236C60.8678 38.4606 60.7334 38.75 60.6377 39.0918C60.542 39.4336 60.4941 39.8278 60.4941 40.2744V40.5615C60.4941 40.9124 60.542 41.2428 60.6377 41.5527C60.7379 41.8581 60.8815 42.127 61.0683 42.3594C61.2597 42.5918 61.4899 42.7741 61.7588 42.9062C62.0322 43.0384 62.3421 43.1045 62.6885 43.1045C63.1351 43.1045 63.5133 43.0133 63.8232 42.8311C64.1331 42.6488 64.4043 42.4049 64.6367 42.0996L65.4023 42.708C65.2428 42.9495 65.04 43.1797 64.7939 43.3984C64.5478 43.6172 64.2448 43.7949 63.8847 43.9316C63.5293 44.0684 63.1077 44.1367 62.6201 44.1367ZM67.8291 36.6035L69.4492 39.2969L71.0898 36.6035H72.5732L70.1533 40.2539L72.6484 44H71.1855L69.4765 41.2246L67.7676 44H66.2978L68.7861 40.2539L66.373 36.6035H67.8291ZM77.0166 36.6035V37.5742H73.0176V36.6035H77.0166ZM74.3711 34.8057H75.6357V42.168C75.6357 42.4186 75.6745 42.6077 75.7519 42.7354C75.8294 42.863 75.9297 42.9473 76.0527 42.9883C76.1758 43.0293 76.3079 43.0498 76.4492 43.0498C76.554 43.0498 76.6634 43.0407 76.7773 43.0225C76.8958 42.9997 76.9847 42.9814 77.0439 42.9678L77.0508 44C76.9505 44.0319 76.8183 44.0615 76.6543 44.0889C76.4948 44.1208 76.3011 44.1367 76.0732 44.1367C75.7633 44.1367 75.4785 44.0752 75.2187 43.9521C74.959 43.8291 74.7516 43.624 74.5967 43.3369C74.4463 43.0452 74.3711 42.6533 74.3711 42.1611V34.8057Z" fill="#6C6E77"/>
</g>
</g>
<defs>
<clipPath id="clip0_31914_7795">
<rect width="395" height="56" fill="white"/>
</clipPath>
</defs>
</svg>
