<svg width="395" height="67" viewBox="0 0 395 67" fill="none" xmlns="http://www.w3.org/2000/svg">
<mask id="mask0_31914_7767" style="mask-type:luminance" maskUnits="userSpaceOnUse" x="0" y="0" width="395" height="67">
<path d="M395 0H0V67H395V0Z" fill="white"/>
</mask>
<g mask="url(#mask0_31914_7767)">
<mask id="path-2-inside-1_31914_7767" fill="white">
<path d="M13 11H2C0.895431 11 0 11.8954 0 13V65C0 66.1046 0.895432 67 2 67H393C394.105 67 395 66.1046 395 65V13C395 11.8954 394.105 11 393 11H53"/>
</mask>
<path d="M13 11V10H2V11V12H13V11ZM2 11V10C0.343156 10 -1 11.3431 -1 13H0H1C1 12.4477 1.44771 12 2 12V11ZM0 13H-1V65H0H1V13H0ZM0 65H-1C-1 66.6569 0.343158 68 2 68V67V66C1.44771 66 1 65.5523 1 65H0ZM2 67V68H393V67V66H2V67ZM393 67V68C394.657 68 396 66.6568 396 65H395H394C394 65.5524 393.553 66 393 66V67ZM395 65H396V13H395H394V65H395ZM395 13H396C396 11.3432 394.657 10 393 10V11V12C393.553 12 394 12.4476 394 13H395ZM393 11V10H53V11V12H393V11Z" fill="#949494" mask="url(#path-2-inside-1_31914_7767)"/>
<path d="M23.1924 14.9268V16H18.2157V14.9268H23.1924ZM18.4755 6.04688V16H17.1562V6.04688H18.4755ZM28.8731 14.7354V10.9277C28.8731 10.6361 28.8137 10.3831 28.6952 10.1689C28.5813 9.9502 28.4082 9.78158 28.1758 9.66309C27.9434 9.5446 27.6562 9.48535 27.3144 9.48535C26.9954 9.48535 26.7151 9.54004 26.4736 9.64941C26.2366 9.75879 26.0497 9.90234 25.913 10.0801C25.7808 10.2578 25.7148 10.4492 25.7148 10.6543H24.4501C24.4501 10.39 24.5186 10.1279 24.6553 9.86816C24.792 9.6084 24.988 9.3737 25.2432 9.16406C25.503 8.94987 25.8127 8.78125 26.1728 8.6582C26.5374 8.5306 26.9431 8.4668 27.3897 8.4668C27.9274 8.4668 28.4013 8.55794 28.8114 8.74023C29.2262 8.92253 29.5498 9.19824 29.7822 9.56738C30.0192 9.93197 30.1376 10.39 30.1376 10.9414V14.3867C30.1376 14.6328 30.1581 14.8949 30.1992 15.1729C30.2448 15.4508 30.3108 15.6901 30.3974 15.8906V16H29.0781C29.0143 15.8542 28.9641 15.6605 28.9277 15.4189C28.8912 15.1729 28.8731 14.945 28.8731 14.7354ZM29.0917 11.5156L29.1054 12.4043H27.8272C27.4671 12.4043 27.1459 12.4339 26.8633 12.4932C26.5808 12.5479 26.3437 12.6322 26.1523 12.7461C25.9609 12.86 25.815 13.0036 25.7148 13.1768C25.6145 13.3454 25.5644 13.5436 25.5644 13.7715C25.5644 14.0039 25.6168 14.2158 25.7216 14.4072C25.8264 14.5986 25.9837 14.7513 26.1933 14.8652C26.4075 14.9746 26.6695 15.0293 26.9795 15.0293C27.3668 15.0293 27.7087 14.9473 28.0049 14.7832C28.3011 14.6191 28.5358 14.4186 28.709 14.1816C28.8867 13.9447 28.9824 13.7145 28.996 13.4912L29.5361 14.0996C29.5042 14.291 29.4177 14.5029 29.2764 14.7354C29.135 14.9678 28.946 15.1911 28.709 15.4053C28.4766 15.6149 28.1986 15.7904 27.875 15.9316C27.556 16.0684 27.1959 16.1367 26.7948 16.1367C26.2935 16.1367 25.8538 16.0387 25.4755 15.8428C25.1018 15.6468 24.8101 15.3848 24.6005 15.0566C24.3954 14.724 24.2929 14.3525 24.2929 13.9424C24.2929 13.5459 24.3705 13.1973 24.5254 12.8965C24.6804 12.5911 24.9036 12.3382 25.1952 12.1377C25.4869 11.9326 25.8379 11.7777 26.2481 11.6729C26.6582 11.568 27.1161 11.5156 27.622 11.5156H29.0917ZM32.12 5.5H33.3915V14.5645L33.2822 16H32.12V5.5ZM38.3886 12.2402V12.3838C38.3886 12.9215 38.3249 13.4206 38.1973 13.8809C38.0697 14.3366 37.8827 14.7331 37.6367 15.0703C37.3906 15.4076 37.0898 15.6696 36.7343 15.8564C36.3788 16.0433 35.9711 16.1367 35.5107 16.1367C35.0413 16.1367 34.6288 16.057 34.2734 15.8975C33.9224 15.7334 33.6263 15.4987 33.3848 15.1934C33.1433 14.888 32.9495 14.5189 32.8036 14.0859C32.6624 13.653 32.5645 13.1654 32.5098 12.623V11.9941C32.5645 11.4473 32.6624 10.9574 32.8036 10.5244C32.9495 10.0915 33.1433 9.72233 33.3848 9.41699C33.6263 9.1071 33.9224 8.8724 34.2734 8.71289C34.6243 8.54883 35.0322 8.4668 35.4971 8.4668C35.9619 8.4668 36.3743 8.55794 36.7343 8.74023C37.0943 8.91797 37.3951 9.17318 37.6367 9.50586C37.8827 9.83854 38.0697 10.2373 38.1973 10.7021C38.3249 11.1624 38.3886 11.6751 38.3886 12.2402ZM37.1171 12.3838V12.2402C37.1171 11.8711 37.0829 11.5247 37.0146 11.2012C36.9462 10.873 36.8369 10.5859 36.6865 10.3398C36.5362 10.0892 36.3379 9.89323 36.0918 9.75195C35.8457 9.60612 35.5426 9.5332 35.1825 9.5332C34.8635 9.5332 34.5855 9.58789 34.3486 9.69727C34.1161 9.80664 33.9179 9.95475 33.7538 10.1416C33.5898 10.3239 33.4554 10.5335 33.3506 10.7705C33.2503 11.0029 33.1751 11.2445 33.125 11.4951V13.1426C33.1979 13.4616 33.3163 13.7692 33.4804 14.0654C33.649 14.3571 33.8723 14.5964 34.1503 14.7832C34.4329 14.9701 34.7816 15.0635 35.1963 15.0635C35.5381 15.0635 35.8298 14.9951 36.0713 14.8584C36.3174 14.7171 36.5156 14.5234 36.666 14.2773C36.821 14.0312 36.9349 13.7464 37.0078 13.4229C37.0808 13.0993 37.1171 12.7529 37.1171 12.3838ZM43.0575 16.1367C42.5426 16.1367 42.0755 16.0501 41.6562 15.877C41.2416 15.6992 40.8838 15.4508 40.583 15.1318C40.2868 14.8128 40.0588 14.4346 39.8993 13.9971C39.7398 13.5596 39.6601 13.0811 39.6601 12.5615V12.2744C39.6601 11.6729 39.749 11.1374 39.9268 10.668C40.1045 10.194 40.346 9.79297 40.6513 9.46484C40.9566 9.13672 41.303 8.88835 41.6904 8.71973C42.0777 8.55111 42.4789 8.4668 42.8936 8.4668C43.4222 8.4668 43.878 8.55794 44.2607 8.74023C44.6481 8.92253 44.9648 9.17773 45.2109 9.50586C45.457 9.82943 45.6393 10.2122 45.7578 10.6543C45.8763 11.0918 45.9356 11.5703 45.9356 12.0898V12.6572H40.412V11.625H44.6708V11.5293C44.6526 11.2012 44.5843 10.8822 44.4658 10.5723C44.3519 10.2624 44.1695 10.0072 43.9189 9.80664C43.6682 9.60612 43.3265 9.50586 42.8936 9.50586C42.6065 9.50586 42.3421 9.56738 42.1006 9.69043C41.8591 9.80892 41.6517 9.98665 41.4785 10.2236C41.3054 10.4606 41.1708 10.75 41.0751 11.0918C40.9795 11.4336 40.9316 11.8278 40.9316 12.2744V12.5615C40.9316 12.9124 40.9795 13.2428 41.0751 13.5527C41.1754 13.8581 41.319 14.127 41.5059 14.3594C41.6973 14.5918 41.9274 14.7741 42.1963 14.9062C42.4698 15.0384 42.7796 15.1045 43.1259 15.1045C43.5725 15.1045 43.9508 15.0133 44.2607 14.8311C44.5707 14.6488 44.8417 14.4049 45.0742 14.0996L45.8399 14.708C45.6804 14.9495 45.4775 15.1797 45.2314 15.3984C44.9853 15.6172 44.6823 15.7949 44.3223 15.9316C43.9668 16.0684 43.5452 16.1367 43.0575 16.1367ZM48.7861 5.5V16H47.5146V5.5H48.7861Z" fill="#343A46"/>
<path d="M18.5693 34.0469V44H17.25V34.0469H18.5693ZM22.042 38.1826V44H20.7773V36.6035H21.9736L22.042 38.1826ZM21.7412 40.0215L21.2148 40.001C21.2194 39.4951 21.2946 39.028 21.4404 38.5996C21.5862 38.1667 21.7913 37.7907 22.0556 37.4717C22.32 37.1527 22.6344 36.9066 22.999 36.7334C23.3681 36.5557 23.776 36.4668 24.2226 36.4668C24.5872 36.4668 24.9153 36.5169 25.207 36.6172C25.4987 36.7129 25.747 36.8678 25.9521 37.082C26.1618 37.2962 26.3213 37.5742 26.4306 37.916C26.54 38.2533 26.5947 38.6657 26.5947 39.1533V44H25.3232V39.1396C25.3232 38.7523 25.2663 38.4424 25.1523 38.21C25.0384 37.973 24.872 37.8021 24.6533 37.6973C24.4345 37.5879 24.1657 37.5332 23.8467 37.5332C23.5322 37.5332 23.2451 37.5993 22.9853 37.7314C22.7301 37.8636 22.5091 38.0459 22.3222 38.2783C22.14 38.5107 21.9964 38.7773 21.8916 39.0781C21.7913 39.3743 21.7412 39.6888 21.7412 40.0215ZM29.7802 38.0254V46.8438H28.5088V36.6035H29.6709L29.7802 38.0254ZM34.7636 40.2402V40.3838C34.7636 40.9215 34.6998 41.4206 34.5722 41.8809C34.4446 42.3366 34.2578 42.7331 34.0117 43.0703C33.7702 43.4076 33.4717 43.6696 33.1162 43.8564C32.7607 44.0433 32.3528 44.1367 31.8926 44.1367C31.4232 44.1367 31.0084 44.0592 30.6484 43.9043C30.2884 43.7493 29.983 43.5238 29.7324 43.2275C29.4817 42.9313 29.2812 42.5758 29.1308 42.1611C28.985 41.7464 28.8847 41.2793 28.8301 40.7598V39.9941C28.8847 39.4473 28.9873 38.9574 29.1377 38.5244C29.2881 38.0915 29.4863 37.7223 29.7324 37.417C29.983 37.1071 30.2861 36.8724 30.6416 36.7129C30.997 36.5488 31.4072 36.4668 31.872 36.4668C32.3369 36.4668 32.7493 36.5579 33.1094 36.7402C33.4694 36.918 33.7724 37.1732 34.0185 37.5059C34.2646 37.8385 34.4492 38.2373 34.5722 38.7021C34.6998 39.1624 34.7636 39.6751 34.7636 40.2402ZM33.4922 40.3838V40.2402C33.4922 39.8711 33.4534 39.5247 33.376 39.2012C33.2985 38.873 33.1777 38.5859 33.0136 38.3398C32.8541 38.0892 32.6491 37.8932 32.3984 37.752C32.1478 37.6061 31.8493 37.5332 31.5029 37.5332C31.1839 37.5332 30.9059 37.5879 30.6689 37.6973C30.4365 37.8066 30.2383 37.9548 30.0742 38.1416C29.9101 38.3239 29.7757 38.5335 29.6709 38.7705C29.5706 39.0029 29.4954 39.2445 29.4453 39.4951V41.2656C29.5364 41.5846 29.664 41.8854 29.8281 42.168C29.9922 42.446 30.2109 42.6715 30.4844 42.8447C30.7578 43.0133 31.1019 43.0977 31.5166 43.0977C31.8584 43.0977 32.1523 43.027 32.3984 42.8857C32.6491 42.7399 32.8541 42.5417 33.0136 42.291C33.1777 42.0404 33.2985 41.7533 33.376 41.4297C33.4534 41.1016 33.4922 40.7529 33.4922 40.3838ZM40.9023 42.291V36.6035H42.1738V44H40.9638L40.9023 42.291ZM41.1416 40.7324L41.6679 40.7188C41.6679 41.2109 41.6155 41.6667 41.5107 42.0859C41.4105 42.5007 41.2464 42.8607 41.0185 43.166C40.7907 43.4714 40.4922 43.7106 40.123 43.8838C39.7539 44.0524 39.305 44.1367 38.7763 44.1367C38.4163 44.1367 38.0859 44.0843 37.7851 43.9795C37.4889 43.8747 37.2337 43.7129 37.0195 43.4941C36.8053 43.2754 36.639 42.9906 36.5205 42.6396C36.4066 42.2887 36.3496 41.8672 36.3496 41.375V36.6035H37.6142V41.3887C37.6142 41.7214 37.6507 41.9971 37.7236 42.2158C37.8011 42.43 37.9036 42.6009 38.0312 42.7285C38.1634 42.8516 38.3092 42.9382 38.4687 42.9883C38.6328 43.0384 38.8014 43.0635 38.9746 43.0635C39.5123 43.0635 39.9385 42.9609 40.2529 42.7559C40.5674 42.5462 40.7929 42.266 40.9297 41.915C41.0709 41.5596 41.1416 41.1654 41.1416 40.7324ZM47.1982 36.6035V37.5742H43.1992V36.6035H47.1982ZM44.5527 34.8057H45.8174V42.168C45.8174 42.4186 45.8561 42.6077 45.9336 42.7354C46.011 42.863 46.1113 42.9473 46.2344 42.9883C46.3574 43.0293 46.4896 43.0498 46.6308 43.0498C46.7357 43.0498 46.845 43.0407 46.959 43.0225C47.0775 42.9997 47.1663 42.9814 47.2256 42.9678L47.2324 44C47.1321 44.0319 47 44.0615 46.8359 44.0889C46.6764 44.1208 46.4827 44.1367 46.2549 44.1367C45.945 44.1367 45.6601 44.0752 45.4004 43.9521C45.1406 43.8291 44.9332 43.624 44.7783 43.3369C44.6279 43.0452 44.5527 42.6533 44.5527 42.1611V34.8057ZM55.75 34.0469V44H54.4511V34.0469H55.75ZM58.9492 34.0469V35.127H51.2588V34.0469H58.9492ZM62.6201 44.1367C62.1051 44.1367 61.638 44.0501 61.2187 43.877C60.804 43.6992 60.4463 43.4508 60.1455 43.1318C59.8493 42.8128 59.6214 42.4346 59.4619 41.9971C59.3024 41.5596 59.2226 41.0811 59.2226 40.5615V40.2744C59.2226 39.6729 59.3115 39.1374 59.4892 38.668C59.667 38.194 59.9085 37.793 60.2138 37.4648C60.5192 37.1367 60.8655 36.8883 61.2529 36.7197C61.6403 36.5511 62.0413 36.4668 62.456 36.4668C62.9847 36.4668 63.4404 36.5579 63.8232 36.7402C64.2106 36.9225 64.5273 37.1777 64.7734 37.5059C65.0195 37.8294 65.2018 38.2122 65.3203 38.6543C65.4388 39.0918 65.498 39.5703 65.498 40.0898V40.6572H59.9746V39.625H64.2334V39.5293C64.2151 39.2012 64.1468 38.8822 64.0283 38.5723C63.9144 38.2624 63.7321 38.0072 63.4814 37.8066C63.2308 37.6061 62.889 37.5059 62.456 37.5059C62.1689 37.5059 61.9046 37.5674 61.6631 37.6904C61.4215 37.8089 61.2142 37.9867 61.041 38.2236C60.8678 38.4606 60.7334 38.75 60.6377 39.0918C60.542 39.4336 60.4941 39.8278 60.4941 40.2744V40.5615C60.4941 40.9124 60.542 41.2428 60.6377 41.5527C60.7379 41.8581 60.8815 42.127 61.0683 42.3594C61.2597 42.5918 61.4899 42.7741 61.7588 42.9062C62.0322 43.0384 62.3421 43.1045 62.6885 43.1045C63.1351 43.1045 63.5133 43.0133 63.8232 42.8311C64.1331 42.6488 64.4043 42.4049 64.6367 42.0996L65.4023 42.708C65.2428 42.9495 65.04 43.1797 64.7939 43.3984C64.5478 43.6172 64.2448 43.7949 63.8847 43.9316C63.5293 44.0684 63.1077 44.1367 62.6201 44.1367ZM67.8291 36.6035L69.4492 39.2969L71.0898 36.6035H72.5732L70.1533 40.2539L72.6484 44H71.1855L69.4765 41.2246L67.7676 44H66.2978L68.7861 40.2539L66.373 36.6035H67.8291ZM77.0166 36.6035V37.5742H73.0176V36.6035H77.0166ZM74.3711 34.8057H75.6357V42.168C75.6357 42.4186 75.6745 42.6077 75.7519 42.7354C75.8294 42.863 75.9297 42.9473 76.0527 42.9883C76.1758 43.0293 76.3079 43.0498 76.4492 43.0498C76.554 43.0498 76.6634 43.0407 76.7773 43.0225C76.8958 42.9997 76.9847 42.9814 77.0439 42.9678L77.0508 44C76.9505 44.0319 76.8183 44.0615 76.6543 44.0889C76.4948 44.1208 76.3011 44.1367 76.0732 44.1367C75.7633 44.1367 75.4785 44.0752 75.2187 43.9521C74.959 43.8291 74.7516 43.624 74.5967 43.3369C74.4463 43.0452 74.3711 42.6533 74.3711 42.1611V34.8057Z" fill="#6C6E77"/>
</g>
</svg>
