<svg width="395" height="56" viewBox="0 0 395 56" fill="none" xmlns="http://www.w3.org/2000/svg">
<g clip-path="url(#clip0_31914_7817)">
<mask id="mask0_31914_7817" style="mask-type:luminance" maskUnits="userSpaceOnUse" x="0" y="0" width="395" height="56">
<path d="M395 0H0V56H395V0Z" fill="white"/>
</mask>
<g mask="url(#mask0_31914_7817)">
<mask id="mask1_31914_7817" style="mask-type:luminance" maskUnits="userSpaceOnUse" x="0" y="0" width="395" height="56">
<path d="M0 0H395V56H0V0Z" fill="white"/>
</mask>
<g mask="url(#mask1_31914_7817)">
<path d="M395 55H0V57H395V55Z" fill="#949494"/>
</g>
<path d="M7.19239 20.9268V22H2.21582V20.9268H7.19239ZM2.47559 12.0469V22H1.15625V12.0469H2.47559ZM12.8731 20.7354V16.9277C12.8731 16.6361 12.8138 16.3831 12.6953 16.1689C12.5814 15.9502 12.4082 15.7816 12.1758 15.6631C11.9434 15.5446 11.6563 15.4854 11.3145 15.4854C10.9955 15.4854 10.7152 15.54 10.4737 15.6494C10.2367 15.7588 10.0498 15.9023 9.91309 16.0801C9.78093 16.2578 9.71485 16.4492 9.71485 16.6543H8.4502C8.4502 16.39 8.51856 16.1279 8.65528 15.8682C8.792 15.6084 8.98796 15.3737 9.24317 15.1641C9.50293 14.9499 9.81283 14.7812 10.1729 14.6582C10.5375 14.5306 10.9431 14.4668 11.3897 14.4668C11.9274 14.4668 12.4014 14.5579 12.8115 14.7402C13.2263 14.9225 13.5498 15.1982 13.7822 15.5674C14.0192 15.932 14.1377 16.39 14.1377 16.9414V20.3867C14.1377 20.6328 14.1582 20.8949 14.1992 21.1729C14.2448 21.4508 14.3109 21.6901 14.3975 21.8906V22H13.0781C13.0143 21.8542 12.9642 21.6605 12.9278 21.4189C12.8913 21.1729 12.8731 20.945 12.8731 20.7354ZM13.0918 17.5156L13.1055 18.4043H11.8272C11.4671 18.4043 11.1459 18.4339 10.8633 18.4932C10.5808 18.5479 10.3438 18.6322 10.1524 18.7461C9.96094 18.86 9.81511 19.0036 9.71485 19.1768C9.61459 19.3454 9.56446 19.5436 9.56446 19.7715C9.56446 20.0039 9.61687 20.2158 9.72168 20.4072C9.8265 20.5986 9.98373 20.7513 10.1934 20.8652C10.4076 20.9746 10.6696 21.0293 10.9795 21.0293C11.3669 21.0293 11.7087 20.9473 12.0049 20.7832C12.3011 20.6191 12.5358 20.4186 12.709 20.1816C12.8867 19.9447 12.9824 19.7145 12.9961 19.4912L13.5362 20.0996C13.5043 20.291 13.4177 20.5029 13.2764 20.7354C13.1351 20.9678 12.946 21.1911 12.709 21.4053C12.4766 21.6149 12.1986 21.7904 11.875 21.9316C11.556 22.0684 11.196 22.1367 10.7949 22.1367C10.2936 22.1367 9.85384 22.0387 9.47559 21.8428C9.10189 21.6468 8.81022 21.3848 8.60059 21.0566C8.39551 20.724 8.29297 20.3525 8.29297 19.9424C8.29297 19.5459 8.37045 19.1973 8.52539 18.8965C8.68034 18.5911 8.90365 18.3382 9.19532 18.1377C9.48698 17.9326 9.83789 17.7777 10.2481 17.6729C10.6582 17.568 11.1162 17.5156 11.6221 17.5156H13.0918ZM16.1201 11.5H17.3916V20.5645L17.2822 22H16.1201V11.5ZM22.3887 18.2402V18.3838C22.3887 18.9215 22.3249 19.4206 22.1973 19.8809C22.0697 20.3366 21.8828 20.7331 21.6367 21.0703C21.3906 21.4076 21.0899 21.6696 20.7344 21.8564C20.3789 22.0433 19.9711 22.1367 19.5108 22.1367C19.0414 22.1367 18.6289 22.057 18.2735 21.8975C17.9225 21.7334 17.6263 21.4987 17.3848 21.1934C17.1433 20.888 16.9496 20.5189 16.8037 20.0859C16.6625 19.653 16.5645 19.1654 16.5098 18.623V17.9941C16.5645 17.4473 16.6625 16.9574 16.8037 16.5244C16.9496 16.0915 17.1433 15.7223 17.3848 15.417C17.6263 15.1071 17.9225 14.8724 18.2735 14.7129C18.6244 14.5488 19.0322 14.4668 19.4971 14.4668C19.9619 14.4668 20.3744 14.5579 20.7344 14.7402C21.0944 14.918 21.3952 15.1732 21.6367 15.5059C21.8828 15.8385 22.0697 16.2373 22.1973 16.7021C22.3249 17.1624 22.3887 17.6751 22.3887 18.2402ZM21.1172 18.3838V18.2402C21.1172 17.8711 21.083 17.5247 21.0147 17.2012C20.9463 16.873 20.8369 16.5859 20.6865 16.3398C20.5362 16.0892 20.3379 15.8932 20.0918 15.752C19.8457 15.6061 19.5427 15.5332 19.1826 15.5332C18.8636 15.5332 18.5856 15.5879 18.3487 15.6973C18.1162 15.8066 17.918 15.9548 17.7539 16.1416C17.5899 16.3239 17.4554 16.5335 17.3506 16.7705C17.2503 17.0029 17.1752 17.2445 17.125 17.4951V19.1426C17.1979 19.4616 17.3164 19.7692 17.4805 20.0654C17.6491 20.3571 17.8724 20.5964 18.1504 20.7832C18.433 20.9701 18.7816 21.0635 19.1963 21.0635C19.5381 21.0635 19.8298 20.9951 20.0713 20.8584C20.3174 20.7171 20.5156 20.5234 20.666 20.2773C20.821 20.0312 20.9349 19.7464 21.0078 19.4229C21.0808 19.0993 21.1172 18.7529 21.1172 18.3838ZM27.0576 22.1367C26.5427 22.1367 26.0755 22.0501 25.6563 21.877C25.2416 21.6992 24.8838 21.4508 24.583 21.1318C24.2868 20.8128 24.0589 20.4346 23.8994 19.9971C23.7399 19.5596 23.6602 19.0811 23.6602 18.5615V18.2744C23.6602 17.6729 23.749 17.1374 23.9268 16.668C24.1045 16.194 24.3461 15.793 24.6514 15.4648C24.9567 15.1367 25.3031 14.8883 25.6905 14.7197C26.0778 14.5511 26.4789 14.4668 26.8936 14.4668C27.4222 14.4668 27.878 14.5579 28.2608 14.7402C28.6481 14.9225 28.9649 15.1777 29.211 15.5059C29.4571 15.8294 29.6393 16.2122 29.7578 16.6543C29.8763 17.0918 29.9356 17.5703 29.9356 18.0898V18.6572H24.4121V17.625H28.6709V17.5293C28.6527 17.2012 28.5843 16.8822 28.4658 16.5723C28.3519 16.2624 28.1696 16.0072 27.919 15.8066C27.6683 15.6061 27.3265 15.5059 26.8936 15.5059C26.6065 15.5059 26.3421 15.5674 26.1006 15.6904C25.8591 15.8089 25.6517 15.9867 25.4785 16.2236C25.3054 16.4606 25.1709 16.75 25.0752 17.0918C24.9795 17.4336 24.9317 17.8278 24.9317 18.2744V18.5615C24.9317 18.9124 24.9795 19.2428 25.0752 19.5527C25.1755 19.8581 25.319 20.127 25.5059 20.3594C25.6973 20.5918 25.9274 20.7741 26.1963 20.9062C26.4698 21.0384 26.7796 21.1045 27.126 21.1045C27.5726 21.1045 27.9509 21.0133 28.2608 20.8311C28.5707 20.6488 28.8418 20.4049 29.0742 20.0996L29.8399 20.708C29.6804 20.9495 29.4776 21.1797 29.2315 21.3984C28.9854 21.6172 28.6823 21.7949 28.3223 21.9316C27.9668 22.0684 27.5453 22.1367 27.0576 22.1367ZM32.7862 11.5V22H31.5147V11.5H32.7862Z" fill="#343A46"/>
<path d="M2.84082 34.0469V44H1.125V34.0469H2.84082ZM6.44336 38.1826V44H4.7959V36.6035H6.34766L6.44336 38.1826ZM6.14941 40.0283L5.61621 40.0215C5.62077 39.4974 5.69368 39.0166 5.83496 38.5791C5.98079 38.1416 6.18131 37.7656 6.43652 37.4512C6.69629 37.1367 7.00618 36.8952 7.36621 36.7266C7.72624 36.5534 8.12728 36.4668 8.56934 36.4668C8.9248 36.4668 9.24609 36.5169 9.5332 36.6172C9.82487 36.7129 10.0733 36.8701 10.2783 37.0889C10.488 37.3076 10.6475 37.5924 10.7569 37.9434C10.8662 38.2897 10.9209 38.7158 10.9209 39.2217V44H9.2666V39.2148C9.2666 38.8594 9.21419 38.5791 9.10937 38.374C9.00911 38.1644 8.861 38.0163 8.66504 37.9297C8.47363 37.8385 8.23437 37.793 7.94727 37.793C7.66471 37.793 7.41178 37.8522 7.18848 37.9707C6.96517 38.0892 6.77604 38.251 6.62109 38.4561C6.4707 38.6611 6.35449 38.8981 6.27246 39.167C6.19043 39.4359 6.14941 39.723 6.14941 40.0283ZM14.2569 38.0254V46.8438H12.6094V36.6035H14.127L14.2569 38.0254ZM19.0762 40.2334V40.377C19.0762 40.9147 19.0124 41.4137 18.8848 41.874C18.7617 42.3298 18.5772 42.7285 18.3311 43.0703C18.0895 43.4076 17.791 43.6696 17.4356 43.8564C17.0801 44.0433 16.67 44.1367 16.2051 44.1367C15.7448 44.1367 15.3415 44.0524 14.9951 43.8838C14.6533 43.7106 14.364 43.4668 14.127 43.1523C13.89 42.8379 13.6986 42.4688 13.5528 42.0449C13.4115 41.6165 13.3112 41.1471 13.252 40.6367V40.083C13.3112 39.5407 13.4115 39.0485 13.5528 38.6064C13.6986 38.1644 13.89 37.7839 14.127 37.4648C14.364 37.1458 14.6533 36.8997 14.9951 36.7266C15.3369 36.5534 15.7357 36.4668 16.1914 36.4668C16.6563 36.4668 17.0687 36.5579 17.4287 36.7402C17.7888 36.918 18.0918 37.1732 18.3379 37.5059C18.584 37.834 18.7686 38.2305 18.8916 38.6953C19.0147 39.1556 19.0762 39.6683 19.0762 40.2334ZM17.4287 40.377V40.2334C17.4287 39.8916 17.3968 39.5749 17.333 39.2832C17.2692 38.987 17.169 38.7272 17.0323 38.5039C16.8955 38.2806 16.7201 38.1074 16.5059 37.9844C16.2963 37.8568 16.0433 37.793 15.7471 37.793C15.4554 37.793 15.2048 37.8431 14.9951 37.9434C14.7855 38.0391 14.6101 38.1735 14.4688 38.3467C14.3275 38.5199 14.2181 38.7227 14.1407 38.9551C14.0632 39.1829 14.0085 39.4313 13.9766 39.7002V41.0264C14.0313 41.3545 14.1247 41.6553 14.2569 41.9287C14.389 42.2021 14.5759 42.4209 14.8174 42.585C15.0635 42.7445 15.378 42.8242 15.7608 42.8242C16.057 42.8242 16.3099 42.7604 16.5196 42.6328C16.7292 42.5052 16.9001 42.3298 17.0323 42.1064C17.169 41.8786 17.2692 41.6165 17.333 41.3203C17.3968 41.0241 17.4287 40.7096 17.4287 40.377ZM24.9278 42.2568V36.6035H26.5821V44H25.0235L24.9278 42.2568ZM25.1602 40.7188L25.7139 40.7051C25.7139 41.2018 25.6592 41.6598 25.5498 42.0791C25.4405 42.4938 25.2718 42.8561 25.044 43.166C24.8161 43.4714 24.5244 43.7106 24.169 43.8838C23.8135 44.0524 23.3874 44.1367 22.8907 44.1367C22.5306 44.1367 22.2002 44.0843 21.8994 43.9795C21.5987 43.8747 21.3389 43.7129 21.1201 43.4941C20.906 43.2754 20.7396 42.9906 20.6211 42.6396C20.5026 42.2887 20.4434 41.8695 20.4434 41.3818V36.6035H22.0909V41.3955C22.0909 41.6644 22.1228 41.89 22.1866 42.0723C22.2504 42.25 22.3369 42.3936 22.4463 42.5029C22.5557 42.6123 22.6833 42.6898 22.8291 42.7354C22.975 42.7809 23.1299 42.8037 23.294 42.8037C23.7634 42.8037 24.1325 42.7126 24.4014 42.5303C24.6748 42.3434 24.8685 42.0928 24.9825 41.7783C25.1009 41.4639 25.1602 41.1107 25.1602 40.7188ZM31.6612 36.6035V37.8066H27.4912V36.6035H31.6612ZM28.6944 34.792H30.3418V41.9561C30.3418 42.1839 30.3737 42.3594 30.4375 42.4824C30.5059 42.6009 30.5993 42.6807 30.7178 42.7217C30.8363 42.7627 30.9753 42.7832 31.1348 42.7832C31.2487 42.7832 31.3581 42.7764 31.4629 42.7627C31.5677 42.749 31.652 42.7354 31.7159 42.7217L31.7227 43.9795C31.586 44.0205 31.4265 44.057 31.2442 44.0889C31.0664 44.1208 30.8614 44.1367 30.6289 44.1367C30.2507 44.1367 29.9157 44.0706 29.6241 43.9385C29.3324 43.8018 29.1045 43.5807 28.9405 43.2754C28.7764 42.9701 28.6944 42.5645 28.6944 42.0586V34.792ZM40.3496 34.0469V44H38.6475V34.0469H40.3496ZM43.4737 34.0469V35.4141H35.5508V34.0469H43.4737ZM47.2266 44.1367C46.6797 44.1367 46.1853 44.0479 45.7432 43.8701C45.3057 43.6878 44.932 43.4349 44.6221 43.1113C44.3168 42.7878 44.0821 42.4072 43.918 41.9697C43.7539 41.5322 43.6719 41.0605 43.6719 40.5547V40.2812C43.6719 39.7025 43.7562 39.1784 43.9248 38.709C44.0935 38.2396 44.3282 37.8385 44.6289 37.5059C44.9297 37.1686 45.2852 36.9111 45.6953 36.7334C46.1055 36.5557 46.5498 36.4668 47.0283 36.4668C47.557 36.4668 48.0196 36.5557 48.416 36.7334C48.8125 36.9111 49.1407 37.1618 49.4004 37.4854C49.6647 37.8044 49.8607 38.1849 49.9883 38.627C50.1205 39.069 50.1866 39.5566 50.1866 40.0898V40.7939H44.4717V39.6113H48.5596V39.4814C48.5505 39.1852 48.4912 38.9072 48.3819 38.6475C48.277 38.3877 48.1153 38.1781 47.8965 38.0186C47.6778 37.859 47.3861 37.7793 47.0215 37.7793C46.7481 37.7793 46.5043 37.8385 46.2901 37.957C46.0804 38.071 45.905 38.2373 45.7637 38.4561C45.6224 38.6748 45.5131 38.9391 45.4356 39.249C45.3627 39.5544 45.3262 39.8984 45.3262 40.2812V40.5547C45.3262 40.8783 45.3695 41.179 45.4561 41.457C45.5472 41.7305 45.6794 41.9697 45.8526 42.1748C46.0257 42.3799 46.2354 42.5417 46.4815 42.6602C46.7276 42.7741 47.0078 42.8311 47.3223 42.8311C47.7188 42.8311 48.072 42.7513 48.3819 42.5918C48.6918 42.4323 48.9606 42.2067 49.1885 41.915L50.0567 42.7559C49.8972 42.9883 49.6898 43.2116 49.4346 43.4258C49.1794 43.6354 48.8672 43.8063 48.4981 43.9385C48.1335 44.0706 47.7097 44.1367 47.2266 44.1367ZM52.7295 36.6035L54.1377 39.0576L55.5733 36.6035H57.3848L55.1426 40.2334L57.4737 44H55.6621L54.1582 41.4434L52.6543 44H50.836L53.1602 40.2334L50.9248 36.6035H52.7295ZM61.9033 36.6035V37.8066H57.7334V36.6035H61.9033ZM58.9366 34.792H60.584V41.9561C60.584 42.1839 60.6159 42.3594 60.6797 42.4824C60.7481 42.6009 60.8415 42.6807 60.96 42.7217C61.0785 42.7627 61.2175 42.7832 61.377 42.7832C61.4909 42.7832 61.6003 42.7764 61.7051 42.7627C61.8099 42.749 61.8942 42.7354 61.958 42.7217L61.9649 43.9795C61.8282 44.0205 61.6686 44.057 61.4864 44.0889C61.3086 44.1208 61.1035 44.1367 60.8711 44.1367C60.4929 44.1367 60.1579 44.0706 59.8662 43.9385C59.5746 43.8018 59.3467 43.5807 59.1826 43.2754C59.0186 42.9701 58.9366 42.5645 58.9366 42.0586V34.792Z" fill="#6C6E77"/>
</g>
</g>
<defs>
<clipPath id="clip0_31914_7817">
<rect width="395" height="56" fill="white"/>
</clipPath>
</defs>
</svg>
