<svg xmlns="http://www.w3.org/2000/svg" width="166" height="166" fill="none"><path fill="url(#a)" fill-rule="evenodd" d="M78.02 33.2c-6.785 0-12.284 5.5-12.284 12.284v41.168a3.32 3.32 0 0 1-6.64 0V45.484c0-10.451 8.472-18.924 18.924-18.924 10.451 0 18.924 8.473 18.924 18.924v1.665a3.32 3.32 0 1 1-6.64 0v-1.665c0-6.784-5.5-12.284-12.284-12.284Z" clip-rule="evenodd"/><mask id="b" width="38" height="64" x="59" y="26" maskUnits="userSpaceOnUse" style="mask-type:alpha"><path fill="#4D94FF" fill-rule="evenodd" d="M78.02 33.2c-6.785 0-12.284 5.5-12.284 12.284v41.168a3.32 3.32 0 0 1-6.64 0V45.484c0-10.451 8.472-18.924 18.924-18.924 10.451 0 18.924 8.473 18.924 18.924v1.665a3.32 3.32 0 1 1-6.64 0v-1.665c0-6.784-5.5-12.284-12.284-12.284Z" clip-rule="evenodd"/></mask><g mask="url(#b)"><path fill="url(#c)" d="M66.405 38.844c0-6.37 6.55-11.607 14.936-12.223.914-.067 1.659-.804 1.659-1.721v-3.32c0-.917-.746-1.664-1.661-1.62-13.345.633-23.904 8.846-23.904 18.884v41.168c0 1.834 2.008 3.32 4.485 3.32 2.477 0 4.485-1.486 4.485-3.32V38.844Z"/></g><path fill="url(#d)" d="M111.552 98.106c0 18.428-14.938 33.366-33.366 33.366-18.427 0-33.366-14.938-33.366-33.366 0-18.427 14.939-33.366 33.366-33.366 18.428 0 33.366 14.939 33.366 33.366Z"/><mask id="f" width="68" height="68" x="44" y="64" maskUnits="userSpaceOnUse" style="mask-type:alpha"><path fill="url(#e)" d="M111.552 98.106c0 18.428-14.938 33.366-33.366 33.366-18.427 0-33.366-14.938-33.366-33.366 0-18.427 14.939-33.366 33.366-33.366 18.428 0 33.366 14.939 33.366 33.366Z"/></mask><g mask="url(#f)"><path fill="#332993" d="M112.88 97.11c0 18.428-14.938 33.366-33.366 33.366-18.427 0-33.366-14.938-33.366-33.366 0-18.427 14.939-33.366 33.366-33.366 18.428 0 33.366 14.939 33.366 33.366Z"/><path fill="url(#g)" d="M115.205 96.114c0 18.428-14.939 33.366-33.366 33.366-18.428 0-33.366-14.938-33.366-33.366 0-18.428 14.938-33.366 33.366-33.366 18.427 0 33.366 14.938 33.366 33.366Z"/></g><path fill="url(#h)" d="M83.597 98.855c0-.615.348-1.17.858-1.513a9.46 9.46 0 0 0 4.189-7.862c0-5.23-4.237-9.468-9.462-9.468-5.226 0-9.462 4.239-9.462 9.468a9.456 9.456 0 0 0 3.841 7.617c.47.348.785.88.785 1.465v15.978c0 .917.743 1.66 1.66 1.66h5.931a1.66 1.66 0 0 0 1.66-1.66V98.855Z"/><g filter="url(#i)"><path fill="#FEAD01" fill-opacity=".4" d="M91.3 99.932a6.64 6.64 0 0 1 6.64-6.64h33.2a6.64 6.64 0 0 1 6.64 6.64v33.2a6.64 6.64 0 0 1-6.64 6.64h-33.2a6.64 6.64 0 0 1-6.64-6.64v-33.2Z"/></g><path fill="#332993" d="M113.945 101.138a.664.664 0 0 1 1.19 0l4.129 8.366a.664.664 0 0 0 .5.363l9.232 1.342a.663.663 0 0 1 .368 1.132l-6.68 6.512a.663.663 0 0 0-.191.588l1.577 9.195a.664.664 0 0 1-.964.7l-8.257-4.342a.668.668 0 0 0-.618 0l-8.257 4.342a.665.665 0 0 1-.964-.7l1.577-9.195a.663.663 0 0 0-.191-.588l-6.68-6.512a.664.664 0 0 1 .368-1.132l9.232-1.342a.664.664 0 0 0 .5-.363l4.129-8.366Z"/><path fill="#6C6CFF" fill-rule="evenodd" d="M115.438 48.549a.498.498 0 0 1 .861 0l.713 1.224a.16.16 0 0 0 .108.078l1.384.3c.373.081.52.534.266.819l-.944 1.056a.165.165 0 0 0-.041.127l.143 1.41a.498.498 0 0 1-.697.505l-1.296-.571a.166.166 0 0 0-.134 0l-1.296.571a.498.498 0 0 1-.696-.506l.143-1.409a.165.165 0 0 0-.041-.127l-.944-1.056a.498.498 0 0 1 .266-.819l1.384-.3a.163.163 0 0 0 .108-.078l.713-1.224Zm.574.167a.166.166 0 0 0-.287 0l-.713 1.224a.496.496 0 0 1-.325.236l-1.384.3a.166.166 0 0 0-.089.273l.944 1.056a.499.499 0 0 1 .124.382l-.142 1.409a.166.166 0 0 0 .232.168l1.296-.57a.496.496 0 0 1 .401 0l1.296.57a.166.166 0 0 0 .232-.169l-.142-1.408a.499.499 0 0 1 .124-.382l.943-1.056a.166.166 0 0 0-.088-.273l-1.384-.3a.496.496 0 0 1-.325-.236l-.713-1.224Z" clip-rule="evenodd"/><path fill="#6C6CFF" fill-rule="evenodd" d="M39.683 21.584a.498.498 0 0 1-.59.626l-3.041-.71a.166.166 0 0 0-.132.026l-2.575 1.765a.498.498 0 0 1-.778-.369l-.264-3.11a.166.166 0 0 0-.065-.118l-2.474-1.904a.498.498 0 0 1 .11-.853l2.877-1.214a.166.166 0 0 0 .091-.097l1.046-2.942a.498.498 0 0 1 .846-.159l2.043 2.361c.03.036.074.056.12.058l3.122.085c.382.01.61.429.413.755l-1.615 2.673a.166.166 0 0 0-.017.133l.883 2.994Zm-.515.303a.166.166 0 0 0 .197-.209l-.883-2.994a.498.498 0 0 1 .051-.399l1.614-2.672a.166.166 0 0 0-.137-.252l-3.121-.086a.498.498 0 0 1-.363-.171l-2.043-2.362a.166.166 0 0 0-.282.053l-1.046 2.942a.498.498 0 0 1-.276.292l-2.876 1.214a.166.166 0 0 0-.037.284l2.475 1.904a.5.5 0 0 1 .192.352l.265 3.111a.166.166 0 0 0 .26.123l2.575-1.765a.498.498 0 0 1 .394-.074l3.041.709Z" clip-rule="evenodd" opacity=".796"/><path fill="#6C6CFF" fill-rule="evenodd" d="M30.92 127.665a.498.498 0 0 1 .244.826l-1.54 1.634a.165.165 0 0 0-.044.126l.167 2.239a.498.498 0 0 1-.71.487l-2.03-.96a.168.168 0 0 0-.134-.003l-2.078.851a.498.498 0 0 1-.682-.525l.285-2.227a.164.164 0 0 0-.038-.128l-1.451-1.714a.498.498 0 0 1 .288-.811l2.206-.417a.165.165 0 0 0 .11-.075l1.181-1.91a.498.498 0 0 1 .86.023l1.079 1.969c.022.041.06.071.106.082l2.181.533Zm.003.598a.166.166 0 0 0-.081-.275l-2.182-.534a.498.498 0 0 1-.318-.244l-1.078-1.97a.166.166 0 0 0-.287-.007l-1.181 1.909a.499.499 0 0 1-.331.228l-2.207.416a.167.167 0 0 0-.096.271l1.451 1.713a.5.5 0 0 1 .114.385l-.285 2.228a.166.166 0 0 0 .227.174l2.078-.85a.5.5 0 0 1 .402.01l2.03.96a.166.166 0 0 0 .237-.162l-.167-2.24a.498.498 0 0 1 .134-.378l1.54-1.634Z" clip-rule="evenodd" opacity=".73"/><path fill="#6C6CFF" d="M146.651 87.716a.332.332 0 0 1-.182.544l-3.057.634a.331.331 0 0 0-.218.156l-1.595 2.684a.332.332 0 0 1-.574-.005l-1.548-2.712a.33.33 0 0 0-.215-.16l-3.045-.687a.332.332 0 0 1-.173-.547l2.101-2.31a.333.333 0 0 0 .085-.254l-.287-3.11a.332.332 0 0 1 .467-.332l2.846 1.284a.33.33 0 0 0 .268.002l2.868-1.234c.233-.1.489.089.461.342l-.342 3.103a.334.334 0 0 0 .08.256l2.06 2.346Z" opacity=".902"/><path fill="#6C6CFF" d="M17.018 59.523a.332.332 0 0 1 .56-.126l1.265 1.361a.332.332 0 0 0 .246.106l1.858-.014a.332.332 0 0 1 .292.493l-.903 1.623a.332.332 0 0 0-.025.267l.588 1.762c.08.242-.13.48-.379.431l-1.823-.358a.332.332 0 0 0-.261.06L16.94 66.23a.332.332 0 0 1-.527-.227l-.223-1.844a.332.332 0 0 0-.136-.23l-1.512-1.08a.332.332 0 0 1 .053-.572l1.685-.782a.332.332 0 0 0 .177-.201l.56-1.772Z" opacity=".371"/><path fill="#6C6CFF" d="M36.476 94.46a.332.332 0 0 1-.574 0l-1.572-2.698a.332.332 0 0 0-.216-.158l-3.052-.66a.332.332 0 0 1-.177-.546l2.08-2.328a.332.332 0 0 0 .083-.255l-.315-3.106a.332.332 0 0 1 .464-.338l2.858 1.26a.332.332 0 0 0 .267 0l2.857-1.26a.332.332 0 0 1 .465.338l-.315 3.106c-.01.093.02.185.083.255l2.08 2.328a.33.33 0 0 1-.177.545l-3.051.661a.332.332 0 0 0-.217.158l-1.571 2.698Z" opacity=".806"/><path fill="#6C6CFF" d="M95.484 21.551a.332.332 0 0 1-.347-.456l1.195-2.884a.332.332 0 0 0-.005-.268l-1.323-2.829a.332.332 0 0 1 .327-.471l3.113.245a.332.332 0 0 0 .253-.088l2.281-2.131a.332.332 0 0 1 .55.165l.728 3.036c.022.09.081.168.162.213l2.732 1.511c.223.123.23.441.013.574l-2.663 1.63a.334.334 0 0 0-.152.22l-.593 3.066a.332.332 0 0 1-.542.19l-2.374-2.029a.332.332 0 0 0-.256-.077l-3.099.383Z" opacity=".548"/><path fill="#6C6CFF" d="M97.542 152.682a.332.332 0 0 1-.572.045l-1.78-2.564a.337.337 0 0 0-.23-.14l-3.094-.415a.332.332 0 0 1-.22-.53l1.888-2.487a.331.331 0 0 0 .063-.26l-.561-3.072a.332.332 0 0 1 .436-.373l2.948 1.028a.332.332 0 0 0 .267-.021l2.748-1.483a.332.332 0 0 1 .49.3l-.067 3.121a.331.331 0 0 0 .103.247l2.259 2.156a.332.332 0 0 1-.133.558l-2.99.901a.332.332 0 0 0-.203.174l-1.352 2.815Z" opacity=".393"/><defs><linearGradient id="a" x1="91.632" x2="55.444" y1="59.428" y2="50.464" gradientUnits="userSpaceOnUse"><stop stop-color="#C8C8FF"/><stop offset=".505" stop-color="#6C6CFF"/></linearGradient><linearGradient id="c" x1="60.127" x2="66.793" y1="72.874" y2="33.966" gradientUnits="userSpaceOnUse"><stop stop-color="#C9C9FF"/><stop offset="1" stop-color="#6C6CFF"/></linearGradient><linearGradient id="d" x1="78.186" x2="83.498" y1="64.74" y2="135.954" gradientUnits="userSpaceOnUse"><stop stop-color="#6C6CFF"/><stop offset="1" stop-color="#BEBEFF"/></linearGradient><linearGradient id="e" x1="78.186" x2="78.186" y1="64.74" y2="131.472" gradientUnits="userSpaceOnUse"><stop stop-color="#A0FACB"/><stop offset="1" stop-color="#00A464"/></linearGradient><linearGradient id="g" x1="81.839" x2="81.839" y1="62.748" y2="129.48" gradientUnits="userSpaceOnUse"><stop stop-color="#C4C4FF"/><stop offset="1" stop-color="#6C6CFF"/></linearGradient><linearGradient id="h" x1="69.72" x2="85.704" y1="101.052" y2="109.459" gradientUnits="userSpaceOnUse"><stop stop-color="#3D3DC1"/><stop offset="1" stop-color="#6C6CFF"/></linearGradient><filter id="i" width="56.48" height="56.48" x="86.3" y="88.292" color-interpolation-filters="sRGB" filterUnits="userSpaceOnUse"><feFlood flood-opacity="0" result="BackgroundImageFix"/><feGaussianBlur in="BackgroundImageFix" stdDeviation="2.5"/><feComposite in2="SourceAlpha" operator="in" result="effect1_backgroundBlur_8255_3626"/><feBlend in="SourceGraphic" in2="effect1_backgroundBlur_8255_3626" result="shape"/></filter></defs></svg>